<?xml version="1.0" standalone="no"?>
<!DOCTYPE svg PUBLIC "-//W3C//DTD SVG 20010904//EN"
 "http://www.w3.org/TR/2001/REC-SVG-20010904/DTD/svg10.dtd">
<svg version="1.0" xmlns="http://www.w3.org/2000/svg"
 width="700.000000pt" height="700.000000pt" viewBox="0 0 700.000000 700.000000"
 preserveAspectRatio="xMidYMid meet">
<metadata>
Created by potrace 1.16, written by Peter Selinger 2001-2019
</metadata>
<g transform="translate(0.000000,700.000000) scale(0.100000,-0.100000)"
fill="#000000" stroke="none">
<path d="M200 6100 l0 -700 700 0 700 0 0 700 0 700 -700 0 -700 0 0 -700z
m1200 0 l0 -500 -500 0 -500 0 0 500 0 500 500 0 500 0 0 -500z"/>
<path d="M600 6100 l0 -300 300 0 300 0 0 300 0 300 -300 0 -300 0 0 -300z"/>
<path d="M1800 6600 l0 -200 200 0 200 0 0 -100 0 -100 100 0 100 0 0 -100 0
-100 100 0 100 0 0 -100 0 -100 -100 0 -100 0 0 -100 0 -100 -100 0 -100 0 0
-200 0 -200 -100 0 -100 0 0 -100 0 -100 100 0 100 0 0 100 0 100 100 0 100 0
0 -100 0 -100 100 0 100 0 0 -100 0 -100 -100 0 -100 0 0 -200 0 -200 100 0
100 0 0 200 0 200 200 0 200 0 0 100 0 100 100 0 100 0 0 -200 0 -200 -100 0
-100 0 0 -100 0 -100 -100 0 -100 0 0 -200 0 -200 -100 0 -100 0 0 -200 0
-200 -100 0 -100 0 0 300 0 300 -100 0 -100 0 0 200 0 200 -100 0 -100 0 0
-200 0 -200 100 0 100 0 0 -300 0 -300 -100 0 -100 0 0 200 0 200 -100 0 -100
0 0 100 0 100 -100 0 -100 0 0 100 0 100 100 0 100 0 0 100 0 100 -100 0 -100
0 0 100 0 100 100 0 100 0 0 100 0 100 -100 0 -100 0 0 100 0 100 -100 0 -100
0 0 -100 0 -100 100 0 100 0 0 -100 0 -100 -100 0 -100 0 0 -100 0 -100 -100
0 -100 0 0 100 0 100 -100 0 -100 0 0 200 0 200 -100 0 -100 0 0 -200 0 -200
-100 0 -100 0 0 -100 0 -100 -100 0 -100 0 0 -100 0 -100 -100 0 -100 0 0
-200 0 -200 100 0 100 0 0 -300 0 -300 100 0 100 0 0 200 0 200 100 0 100 0 0
-100 0 -100 100 0 100 0 0 -100 0 -100 -100 0 -100 0 0 -200 0 -200 -100 0
-100 0 0 100 0 100 -100 0 -100 0 0 -200 0 -200 -100 0 -100 0 0 -100 0 -100
100 0 100 0 0 100 0 100 100 0 100 0 0 -100 0 -100 200 0 200 0 0 -100 0 -100
-400 0 -400 0 0 -100 0 -100 100 0 100 0 0 -100 0 -100 -100 0 -100 0 0 -100
0 -100 100 0 100 0 0 100 0 100 100 0 100 0 0 -100 0 -100 500 0 500 0 0 100
0 100 600 0 600 0 0 100 0 100 100 0 100 0 0 -100 0 -100 100 0 100 0 0 -100
0 -100 -100 0 -100 0 0 -100 0 -100 -100 0 -100 0 0 -100 0 -100 -100 0 -100
0 0 -100 0 -100 100 0 100 0 0 -100 0 -100 -100 0 -100 0 0 -100 0 -100 100 0
100 0 0 -100 0 -100 100 0 100 0 0 100 0 100 100 0 100 0 0 100 0 100 100 0
100 0 0 100 0 100 100 0 100 0 0 -300 0 -300 100 0 100 0 0 -100 0 -100 200 0
200 0 0 100 0 100 100 0 100 0 0 -100 0 -100 100 0 100 0 0 -100 0 -100 100 0
100 0 0 300 0 300 100 0 100 0 0 100 0 100 200 0 200 0 0 -100 0 -100 -100 0
-100 0 0 -100 0 -100 -100 0 -100 0 0 -200 0 -200 100 0 100 0 0 200 0 200
100 0 100 0 0 -100 0 -100 100 0 100 0 0 -100 0 -100 300 0 300 0 0 100 0 100
-100 0 -100 0 0 100 0 100 200 0 200 0 0 200 0 200 -100 0 -100 0 0 -100 0
-100 -100 0 -100 0 0 200 0 200 100 0 100 0 0 100 0 100 -100 0 -100 0 0 300
0 300 100 0 100 0 0 100 0 100 100 0 100 0 0 -100 0 -100 200 0 200 0 0 300 0
300 -400 0 -400 0 0 -100 0 -100 -100 0 -100 0 0 -200 0 -200 -100 0 -100 0 0
200 0 200 -100 0 -100 0 0 100 0 100 -100 0 -100 0 0 100 0 100 200 0 200 0 0
100 0 100 -100 0 -100 0 0 200 0 200 100 0 100 0 0 200 0 200 100 0 100 0 0
-200 0 -200 100 0 100 0 0 200 0 200 100 0 100 0 0 100 0 100 100 0 100 0 0
-200 0 -200 200 0 200 0 0 100 0 100 -100 0 -100 0 0 100 0 100 100 0 100 0 0
100 0 100 -100 0 -100 0 0 -100 0 -100 -100 0 -100 0 0 100 0 100 -100 0 -100
0 0 -100 0 -100 -100 0 -100 0 0 100 0 100 -200 0 -200 0 0 100 0 100 -200 0
-200 0 0 400 0 400 -100 0 -100 0 0 100 0 100 100 0 100 0 0 500 0 500 -100 0
-100 0 0 100 0 100 100 0 100 0 0 100 0 100 -300 0 -300 0 0 -100 0 -100 -100
0 -100 0 0 100 0 100 -100 0 -100 0 0 -100 0 -100 100 0 100 0 0 -100 0 -100
-100 0 -100 0 0 -100 0 -100 -300 0 -300 0 0 200 0 200 200 0 200 0 0 100 0
100 -200 0 -200 0 0 -100 0 -100 -300 0 -300 0 0 100 0 100 -200 0 -200 0 0
-100 0 -100 -300 0 -300 0 0 100 0 100 -100 0 -100 0 0 -200z m1000 -300 l0
-100 100 0 100 0 0 100 0 100 200 0 200 0 0 -100 0 -100 100 0 100 0 0 -100 0
-100 -100 0 -100 0 0 100 0 100 -200 0 -200 0 0 -100 0 -100 -200 0 -200 0 0
200 0 200 100 0 100 0 0 -100z m2200 -400 l0 -500 -100 0 -100 0 0 100 0 100
-100 0 -100 0 0 -100 0 -100 -100 0 -100 0 0 100 0 100 -100 0 -100 0 0 -200
0 -200 -100 0 -100 0 0 -100 0 -100 300 0 300 0 0 100 0 100 100 0 100 0 0
-100 0 -100 100 0 100 0 0 -500 0 -500 100 0 100 0 0 100 0 100 100 0 100 0 0
-100 0 -100 100 0 100 0 0 -100 0 -100 -100 0 -100 0 0 -200 0 -200 -100 0
-100 0 0 -300 0 -300 -200 0 -200 0 0 -200 0 -200 -100 0 -100 0 0 -100 0
-100 -100 0 -100 0 0 -100 0 -100 -100 0 -100 0 0 -100 0 -100 100 0 100 0 0
-100 0 -100 100 0 100 0 0 -100 0 -100 -100 0 -100 0 0 -100 0 -100 200 0 200
0 0 300 0 300 -100 0 -100 0 0 100 0 100 100 0 100 0 0 -100 0 -100 100 0 100
0 0 -400 0 -400 -200 0 -200 0 0 -200 0 -200 -100 0 -100 0 0 100 0 100 -100
0 -100 0 0 100 0 100 -100 0 -100 0 0 -200 0 -200 -100 0 -100 0 0 200 0 200
100 0 100 0 0 100 0 100 100 0 100 0 0 100 0 100 -400 0 -400 0 0 -100 0 -100
-300 0 -300 0 0 100 0 100 100 0 100 0 0 100 0 100 100 0 100 0 0 100 0 100
100 0 100 0 0 -100 0 -100 400 0 400 0 0 100 0 100 -100 0 -100 0 0 100 0 100
-100 0 -100 0 0 -100 0 -100 -100 0 -100 0 0 100 0 100 -100 0 -100 0 0 200 0
200 -300 0 -300 0 0 -100 0 -100 -100 0 -100 0 0 100 0 100 100 0 100 0 0 100
0 100 -300 0 -300 0 0 100 0 100 -100 0 -100 0 0 300 0 300 100 0 100 0 0
-300 0 -300 100 0 100 0 0 100 0 100 200 0 200 0 0 -200 0 -200 400 0 400 0 0
100 0 100 100 0 100 0 0 100 0 100 -100 0 -100 0 0 100 0 100 -100 0 -100 0 0
100 0 100 100 0 100 0 0 100 0 100 -100 0 -100 0 0 100 0 100 -100 0 -100 0 0
100 0 100 100 0 100 0 0 100 0 100 -100 0 -100 0 0 200 0 200 200 0 200 0 0
-200 0 -200 100 0 100 0 0 200 0 200 100 0 100 0 0 100 0 100 -200 0 -200 0 0
100 0 100 100 0 100 0 0 100 0 100 -200 0 -200 0 0 -100 0 -100 -100 0 -100 0
0 400 0 400 200 0 200 0 0 -100 0 -100 100 0 100 0 0 100 0 100 100 0 100 0 0
-100 0 -100 100 0 100 0 0 300 0 300 100 0 100 0 0 100 0 100 300 0 300 0 0
-500z m-2000 -400 l0 -300 -100 0 -100 0 0 -100 0 -100 -100 0 -100 0 0 100 0
100 -100 0 -100 0 0 200 0 200 100 0 100 0 0 100 0 100 200 0 200 0 0 -300z
m-1800 -1000 l0 -100 100 0 100 0 0 100 0 100 100 0 100 0 0 -100 0 -100 -100
0 -100 0 0 -100 0 -100 100 0 100 0 0 -100 0 -100 100 0 100 0 0 -100 0 -100
-100 0 -100 0 0 -100 0 -100 100 0 100 0 0 -100 0 -100 -100 0 -100 0 0 -100
0 -100 -100 0 -100 0 0 -100 0 -100 200 0 200 0 0 -100 0 -100 -300 0 -300 0
0 -100 0 -100 -100 0 -100 0 0 100 0 100 -100 0 -100 0 0 100 0 100 100 0 100
0 0 -100 0 -100 100 0 100 0 0 300 0 300 200 0 200 0 0 100 0 100 -300 0 -300
0 0 100 0 100 -100 0 -100 0 0 100 0 100 -200 0 -200 0 0 200 0 200 300 0 300
0 0 100 0 100 100 0 100 0 0 -100z m1800 -600 l0 -100 -100 0 -100 0 0 100 0
100 100 0 100 0 0 -100z m3000 0 l0 -100 -100 0 -100 0 0 100 0 100 100 0 100
0 0 -100z m-3000 -500 l0 -200 100 0 100 0 0 -200 0 -200 -100 0 -100 0 0 200
0 200 -200 0 -200 0 0 100 0 100 100 0 100 0 0 100 0 100 100 0 100 0 0 -200z
m-1400 -900 l0 -100 -100 0 -100 0 0 100 0 100 100 0 100 0 0 -100z m400 0 l0
-100 -100 0 -100 0 0 100 0 100 100 0 100 0 0 -100z m400 -200 l0 -100 -100 0
-100 0 0 100 0 100 100 0 100 0 0 -100z m4200 0 l0 -100 -100 0 -100 0 0 100
0 100 100 0 100 0 0 -100z m-5000 -200 l0 -100 -500 0 -500 0 0 100 0 100 500
0 500 0 0 -100z m4200 -600 l0 -300 -300 0 -300 0 0 300 0 300 300 0 300 0 0
-300z m-2800 -600 l0 -100 -100 0 -100 0 0 100 0 100 100 0 100 0 0 -100z
m2800 0 l0 -100 -100 0 -100 0 0 -100 0 -100 -100 0 -100 0 0 100 0 100 100 0
100 0 0 100 0 100 100 0 100 0 0 -100z"/>
<path d="M4600 6100 l0 -100 -100 0 -100 0 0 -200 0 -200 100 0 100 0 0 100 0
100 100 0 100 0 0 200 0 200 -100 0 -100 0 0 -100z"/>
<path d="M3400 5500 l0 -100 100 0 100 0 0 100 0 100 -100 0 -100 0 0 -100z"/>
<path d="M3800 5400 l0 -200 100 0 100 0 0 200 0 200 -100 0 -100 0 0 -200z"/>
<path d="M4600 4900 l0 -100 -100 0 -100 0 0 -100 0 -100 -100 0 -100 0 0
-200 0 -200 -200 0 -200 0 0 -100 0 -100 -200 0 -200 0 0 -100 0 -100 100 0
100 0 0 -100 0 -100 100 0 100 0 0 -100 0 -100 -100 0 -100 0 0 -100 0 -100
100 0 100 0 0 -100 0 -100 100 0 100 0 0 -100 0 -100 -100 0 -100 0 0 -100 0
-100 -100 0 -100 0 0 -300 0 -300 100 0 100 0 0 100 0 100 100 0 100 0 0 -100
0 -100 100 0 100 0 0 100 0 100 100 0 100 0 0 100 0 100 100 0 100 0 0 200 0
200 100 0 100 0 0 200 0 200 100 0 100 0 0 100 0 100 -100 0 -100 0 0 -100 0
-100 -300 0 -300 0 0 100 0 100 -100 0 -100 0 0 200 0 200 -100 0 -100 0 0
100 0 100 300 0 300 0 0 -300 0 -300 100 0 100 0 0 100 0 100 300 0 300 0 0
100 0 100 100 0 100 0 0 100 0 100 -100 0 -100 0 0 -100 0 -100 -100 0 -100 0
0 100 0 100 -100 0 -100 0 0 100 0 100 -100 0 -100 0 0 -100 0 -100 -100 0
-100 0 0 300 0 300 200 0 200 0 0 200 0 200 -100 0 -100 0 0 -100z m200 -1000
l0 -100 -100 0 -100 0 0 100 0 100 100 0 100 0 0 -100z m-800 -600 l0 -100
100 0 100 0 0 -100 0 -100 100 0 100 0 0 -100 0 -100 -100 0 -100 0 0 -100 0
-100 100 0 100 0 0 -100 0 -100 -100 0 -100 0 0 -100 0 -100 -100 0 -100 0 0
100 0 100 -100 0 -100 0 0 100 0 100 100 0 100 0 0 100 0 100 100 0 100 0 0
100 0 100 -100 0 -100 0 0 100 0 100 -100 0 -100 0 0 100 0 100 100 0 100 0 0
-100z"/>
<path d="M4200 1500 l0 -100 100 0 100 0 0 100 0 100 -100 0 -100 0 0 -100z"/>
<path d="M4200 1100 l0 -100 100 0 100 0 0 100 0 100 -100 0 -100 0 0 -100z"/>
<path d="M2600 5400 l0 -200 100 0 100 0 0 200 0 200 -100 0 -100 0 0 -200z"/>
<path d="M1200 4000 l0 -200 200 0 200 0 0 100 0 100 -100 0 -100 0 0 100 0
100 -100 0 -100 0 0 -200z"/>
<path d="M5400 1500 l0 -100 100 0 100 0 0 100 0 100 -100 0 -100 0 0 -100z"/>
<path d="M5400 6100 l0 -700 700 0 700 0 0 700 0 700 -700 0 -700 0 0 -700z
m1200 0 l0 -500 -500 0 -500 0 0 500 0 500 500 0 500 0 0 -500z"/>
<path d="M5800 6100 l0 -300 300 0 300 0 0 300 0 300 -300 0 -300 0 0 -300z"/>
<path d="M1800 5800 l0 -400 100 0 100 0 0 200 0 200 100 0 100 0 0 100 0 100
-100 0 -100 0 0 100 0 100 -100 0 -100 0 0 -400z"/>
<path d="M5600 5100 l0 -100 -100 0 -100 0 0 -200 0 -200 100 0 100 0 0 200 0
200 200 0 200 0 0 -300 0 -300 100 0 100 0 0 100 0 100 100 0 100 0 0 -100 0
-100 100 0 100 0 0 100 0 100 100 0 100 0 0 300 0 300 -200 0 -200 0 0 -200 0
-200 -100 0 -100 0 0 200 0 200 -300 0 -300 0 0 -100z m1000 -400 l0 -100
-100 0 -100 0 0 100 0 100 100 0 100 0 0 -100z"/>
<path d="M200 4900 l0 -100 100 0 100 0 0 100 0 100 -100 0 -100 0 0 -100z"/>
<path d="M6200 3200 l0 -200 100 0 100 0 0 100 0 100 100 0 100 0 0 -200 0
-200 100 0 100 0 0 200 0 200 -100 0 -100 0 0 100 0 100 -200 0 -200 0 0 -200z"/>
<path d="M1800 1700 l0 -100 100 0 100 0 0 100 0 100 -100 0 -100 0 0 -100z"/>
<path d="M2200 1500 l0 -300 -100 0 -100 0 0 -100 0 -100 -100 0 -100 0 0
-100 0 -100 100 0 100 0 0 -100 0 -100 100 0 100 0 0 300 0 300 100 0 100 0 0
200 0 200 100 0 100 0 0 100 0 100 -200 0 -200 0 0 -300z"/>
<path d="M6200 1700 l0 -100 100 0 100 0 0 -100 0 -100 100 0 100 0 0 -100 0
-100 100 0 100 0 0 100 0 100 -100 0 -100 0 0 100 0 100 100 0 100 0 0 100 0
100 -100 0 -100 0 0 -100 0 -100 -100 0 -100 0 0 100 0 100 -100 0 -100 0 0
-100z"/>
<path d="M200 900 l0 -700 700 0 700 0 0 700 0 700 -700 0 -700 0 0 -700z
m1200 0 l0 -500 -500 0 -500 0 0 500 0 500 500 0 500 0 0 -500z"/>
<path d="M600 900 l0 -300 300 0 300 0 0 300 0 300 -300 0 -300 0 0 -300z"/>
<path d="M6600 800 l0 -200 100 0 100 0 0 200 0 200 -100 0 -100 0 0 -200z"/>
<path d="M2000 300 l0 -100 500 0 500 0 0 100 0 100 -500 0 -500 0 0 -100z"/>
<path d="M3200 300 l0 -100 100 0 100 0 0 100 0 100 -100 0 -100 0 0 -100z"/>
<path d="M6400 300 l0 -100 100 0 100 0 0 100 0 100 -100 0 -100 0 0 -100z"/>
</g>
</svg>
