<?xml version="1.0" encoding="UTF-8"?>
<svg xmlns="http://www.w3.org/2000/svg" xmlns:xlink="http://www.w3.org/1999/xlink" width="291pt" height="40pt" viewBox="0 0 291 40" version="1.1">
<g id="surface1">
<path style=" stroke:none;fill-rule:nonzero;fill:rgb(0%,0%,0%);fill-opacity:1;" d="M 60.523438 1.863281 C 60.242188 2.296875 60.863281 3.199219 62.75 5.1875 C 64.296875 6.863281 65.382812 7.265625 66.1875 6.460938 C 66.714844 5.933594 66.652344 4.285156 66.0625 3.445312 C 65.074219 2.050781 61.109375 0.933594 60.523438 1.863281 Z M 60.523438 1.863281 "/>
<path style=" stroke:none;fill-rule:nonzero;fill:rgb(0%,0%,0%);fill-opacity:1;" d="M 104.730469 2.359375 C 104.636719 2.609375 104.730469 3.199219 104.976562 3.632812 C 105.253906 4.160156 105.410156 5.621094 105.410156 8.199219 L 105.410156 11.957031 L 103.335938 13.042969 C 100.238281 14.628906 100.671875 15.652344 103.863281 14.285156 C 104.667969 13.945312 105.347656 13.664062 105.410156 13.664062 C 105.472656 13.664062 105.597656 14.222656 105.71875 14.90625 C 106 16.554688 107.050781 18.042969 108.351562 18.695312 C 110.425781 19.75 116.027344 19.285156 117.203125 17.980469 C 117.761719 17.359375 117.699219 16.738281 116.832031 12.484375 C 116.585938 11.304688 116.089844 11.832031 115.378906 13.976562 C 114.574219 16.398438 113.984375 16.769531 111.105469 16.769531 C 108.382812 16.769531 107.699219 16.242188 107.484375 14.039062 C 107.390625 13.042969 107.453125 12.421875 107.671875 12.421875 C 107.824219 12.421875 109.652344 11.304688 111.726562 9.90625 C 114.203125 8.261719 115.472656 7.203125 115.472656 6.832031 C 115.472656 6.242188 113.613281 4.660156 112.871094 4.660156 C 112.625 4.660156 112.25 5.15625 112.066406 5.746094 C 111.695312 6.863281 107.671875 10.871094 107.484375 10.28125 C 107.390625 10.03125 107.609375 8.386719 108.257812 4.285156 C 108.414062 3.136719 108.382812 3.105469 107.082031 2.484375 C 105.441406 1.738281 104.976562 1.707031 104.730469 2.359375 Z M 104.730469 2.359375 "/>
<path style=" stroke:none;fill-rule:nonzero;fill:rgb(0%,0%,0%);fill-opacity:1;" d="M 12.074219 2.609375 C 12.074219 2.824219 12.351562 3.632812 12.660156 4.378906 C 13.003906 5.125 13.375 6.832031 13.496094 8.136719 L 13.714844 10.527344 L 12.507812 10.839844 C 11.824219 10.992188 10.773438 11.242188 10.125 11.367188 C 7.429688 11.832031 8.730469 13.167969 11.703125 12.949219 L 13.621094 12.796875 L 13.621094 14.316406 C 13.621094 15.777344 13.589844 15.808594 12.476562 16.117188 C 10.09375 16.738281 6.53125 17.390625 4.363281 17.578125 C 3.15625 17.703125 2.074219 17.917969 1.949219 18.074219 C 1.609375 18.664062 3.003906 19.628906 4.394531 19.78125 C 5.386719 19.90625 6.5625 19.6875 8.761719 18.976562 C 12.167969 17.886719 12.847656 17.796875 13.125 18.507812 C 13.34375 19.039062 13.375 25.464844 13.1875 25.464844 C 13.003906 25.464844 10.09375 24.222656 9.96875 24.066406 C 9.90625 24.007812 10.09375 23.539062 10.339844 23.042969 C 10.929688 21.894531 10.742188 21.242188 9.566406 20.652344 C 8.109375 19.875 7.832031 20.03125 7.675781 21.738281 C 7.429688 24.160156 5.511719 27.765625 3.1875 30.0625 C 0.710938 32.578125 0.621094 33.261719 2.878906 32.113281 C 4.644531 31.210938 6.46875 29.503906 7.800781 27.546875 C 8.480469 26.492188 9.101562 25.558594 9.164062 25.527344 C 9.316406 25.3125 14.117188 27.609375 16.871094 29.222656 C 18.417969 30.09375 21.484375 31.738281 23.683594 32.855469 C 28.726562 35.402344 29.6875 35.496094 34.828125 33.726562 C 38.449219 32.484375 39.75 31.832031 39.472656 31.367188 C 39.347656 31.179688 37.179688 31.054688 34.425781 31.054688 C 27.429688 31.054688 24.890625 30.527344 18.203125 27.703125 L 15.480469 26.554688 L 15.480469 22.359375 L 16.65625 22.328125 C 19.316406 22.265625 21.050781 20.902344 19.378906 20.15625 C 18.605469 19.78125 17.644531 19.9375 15.882812 20.683594 C 15.601562 20.808594 15.507812 20.464844 15.570312 19.503906 C 15.570312 18.757812 15.507812 17.949219 15.386719 17.671875 C 15.167969 17.265625 15.539062 17.082031 17.644531 16.675781 C 20.648438 16.054688 21.113281 15.839844 20.742188 15.21875 C 20.433594 14.71875 18.203125 14.597656 16.46875 14.96875 L 15.449219 15.21875 L 15.539062 13.757812 L 15.632812 12.328125 L 17.644531 11.644531 C 19.195312 11.117188 19.6875 10.808594 19.75 10.3125 C 19.84375 9.78125 19.65625 9.660156 18.820312 9.566406 C 18.265625 9.503906 17.335938 9.566406 16.746094 9.6875 L 15.695312 9.90625 L 15.941406 7.671875 C 16.375 3.539062 16.40625 3.664062 14.859375 2.855469 C 13.3125 2.082031 12.074219 1.957031 12.074219 2.609375 Z M 12.074219 2.609375 "/>
<path style=" stroke:none;fill-rule:nonzero;fill:rgb(0%,0%,0%);fill-opacity:1;" d="M 145.996094 2.855469 C 145.902344 3.074219 145.777344 4.066406 145.714844 5.0625 C 145.3125 9.347656 139.183594 17.640625 133.054688 22.175781 C 130.796875 23.820312 130.050781 24.84375 131.074219 24.84375 C 131.320312 24.84375 132.589844 24.285156 133.890625 23.632812 C 138.410156 21.273438 143.394531 16.335938 146.460938 11.179688 C 147.171875 10 147.851562 9.066406 147.976562 9.160156 C 148.101562 9.222656 149.429688 11.023438 150.917969 13.105469 C 155.128906 19.007812 156.921875 21.148438 158.070312 21.613281 C 159.523438 22.234375 166.335938 22.234375 166.828125 21.613281 C 167.292969 21.085938 167.417969 21.148438 163.207031 19.285156 C 161.351562 18.476562 159.027344 17.265625 158.070312 16.613281 C 156.054688 15.28125 152.125 11.429688 150.144531 8.851562 L 148.84375 7.144531 L 149.648438 6.179688 C 150.609375 5.03125 150.421875 4.441406 148.65625 3.261719 C 147.449219 2.421875 146.179688 2.234375 145.996094 2.855469 Z M 145.996094 2.855469 "/>
<path style=" stroke:none;fill-rule:nonzero;fill:rgb(0%,0%,0%);fill-opacity:1;" d="M 98.136719 3.914062 C 98.136719 6.023438 95.84375 9.8125 91.882812 14.347656 C 90.890625 15.464844 90.210938 16.492188 90.363281 16.613281 C 90.953125 16.957031 93.210938 15.496094 95.257812 13.445312 L 97.300781 11.398438 L 97.113281 15.777344 C 96.867188 20.464844 97.082031 21.738281 98.105469 21.738281 C 99.03125 21.738281 99.375 20.15625 99.375 15.621094 C 99.375 12.296875 99.28125 11.242188 98.878906 10.558594 C 98.382812 9.71875 98.382812 9.660156 99.375 8.199219 C 99.929688 7.359375 100.765625 6.273438 101.199219 5.808594 L 102.003906 4.9375 L 100.859375 3.851562 C 100.179688 3.230469 99.375 2.796875 98.910156 2.796875 C 98.226562 2.796875 98.136719 2.917969 98.136719 3.914062 Z M 98.136719 3.914062 "/>
<path style=" stroke:none;fill-rule:nonzero;fill:rgb(0%,0%,0%);fill-opacity:1;" d="M 283.570312 4.066406 C 279.917969 4.9375 269.269531 6.554688 263.851562 7.019531 C 262.425781 7.113281 261.28125 7.328125 261.28125 7.453125 C 261.28125 7.855469 262.394531 8.695312 263.386719 9.039062 C 264.316406 9.347656 265.429688 9.191406 272.238281 7.855469 L 273.136719 7.703125 L 272.953125 9.347656 C 272.859375 10.28125 272.550781 11.554688 272.269531 12.234375 L 271.777344 13.445312 L 269.792969 13.230469 C 267.65625 13.011719 267.226562 13.230469 267.78125 14.316406 C 268.246094 15.1875 268.246094 20.839844 267.78125 22.824219 C 267.164062 25.339844 267.441406 27.296875 268.523438 28.011719 C 269.144531 28.417969 269.359375 28.292969 269.855469 27.082031 C 270.226562 26.242188 270.414062 24.441406 270.539062 20.527344 L 270.722656 15.09375 L 271.652344 14.875 C 273.199219 14.472656 279.917969 13.695312 280.351562 13.882812 C 280.597656 13.976562 280.875 14.378906 280.96875 14.78125 C 281.125 15.402344 281.1875 20.714844 281.0625 25.25 C 281.03125 26.769531 282.113281 28.105469 282.980469 27.640625 C 284.003906 27.082031 284.28125 25.371094 284.035156 20.621094 C 283.816406 16.398438 283.847656 16.085938 284.46875 15.03125 C 284.839844 14.410156 285.085938 13.726562 284.996094 13.507812 C 284.933594 13.292969 284.21875 12.765625 283.414062 12.265625 C 281.742188 11.304688 281.683594 11.304688 274.65625 12.886719 C 274.003906 13.042969 273.972656 13.011719 274.3125 12.359375 C 274.5 11.957031 275.148438 11.054688 275.707031 10.339844 C 276.882812 8.914062 277.007812 8.261719 276.234375 7.796875 C 275.460938 7.359375 277.410156 7.144531 284.128906 6.894531 C 288.617188 6.707031 289.855469 6.554688 290.070312 6.210938 C 290.535156 5.496094 290.320312 5.1875 288.832031 4.410156 C 287.410156 3.695312 285.582031 3.570312 283.570312 4.066406 Z M 283.570312 4.066406 "/>
<path style=" stroke:none;fill-rule:nonzero;fill:rgb(0%,0%,0%);fill-opacity:1;" d="M 240.632812 5.125 C 239.921875 5.339844 235.832031 5.933594 231.5625 6.398438 C 224.90625 7.144531 223.574219 7.203125 222.367188 6.863281 C 220.511719 6.398438 220.136719 6.707031 220.726562 8.324219 C 221.625 10.714844 221.097656 23.570312 219.953125 27.640625 C 219.148438 30.464844 219.054688 31.738281 219.582031 33.011719 C 220.136719 34.316406 220.820312 34.472656 221.46875 33.445312 C 222.429688 31.988281 222.988281 27.421875 223.511719 16.148438 C 223.699219 12.484375 223.914062 9.441406 224.007812 9.347656 C 224.164062 9.160156 229.457031 8.539062 235.554688 7.949219 C 240.507812 7.484375 241.5 7.578125 242.054688 8.632812 C 242.519531 9.503906 243.015625 23.167969 242.707031 27.265625 C 242.582031 29.191406 242.335938 30.933594 242.148438 31.117188 C 241.871094 31.398438 241.34375 31.367188 240.199219 31.117188 C 239.300781 30.902344 238.496094 30.808594 238.402344 30.902344 C 238.03125 31.304688 242.179688 36.644531 242.859375 36.644531 C 243.449219 36.644531 244.6875 34.9375 245.367188 33.261719 C 245.863281 31.988281 245.894531 31.242188 245.492188 21.738281 C 245.089844 11.523438 245.121094 11.054688 246.019531 8.914062 C 246.515625 7.796875 246.515625 7.734375 245.769531 6.957031 C 244.933594 6.054688 243.449219 5.125 242.550781 4.875 C 242.210938 4.78125 241.34375 4.90625 240.632812 5.125 Z M 240.632812 5.125 "/>
<path style=" stroke:none;fill-rule:nonzero;fill:rgb(0%,0%,0%);fill-opacity:1;" d="M 188.4375 5.496094 C 188.3125 5.589844 188.28125 6.554688 188.40625 7.578125 C 188.53125 9.128906 188.4375 9.9375 187.757812 11.925781 C 185.3125 19.378906 180.449219 26.085938 174.910156 29.660156 C 172.648438 31.148438 172 32.234375 173.609375 31.863281 C 175.0625 31.523438 178.066406 29.875 180.296875 28.199219 C 182.773438 26.335938 185.21875 23.476562 187.136719 20.1875 C 187.878906 18.914062 188.625 17.671875 188.746094 17.453125 C 188.933594 17.175781 189.863281 18.261719 191.78125 20.871094 C 196.828125 27.824219 200.542969 32.265625 201.441406 32.484375 C 201.875 32.609375 203.917969 32.546875 205.960938 32.390625 C 211.066406 31.925781 211.5625 31.273438 207.632812 30.09375 C 203.546875 28.882812 201.007812 27.421875 198.003906 24.535156 C 196.519531 23.074219 194.042969 20.402344 192.523438 18.601562 L 189.800781 15.3125 L 190.730469 12.855469 C 191.253906 11.523438 192 9.84375 192.402344 9.128906 C 193.082031 7.980469 193.113281 7.796875 192.679688 7.175781 C 191.84375 5.960938 189.058594 4.875 188.4375 5.496094 Z M 188.4375 5.496094 "/>
<path style=" stroke:none;fill-rule:nonzero;fill:rgb(0%,0%,0%);fill-opacity:1;" d="M 28.699219 5.808594 C 28.574219 5.902344 28.574219 6.523438 28.667969 7.144531 C 28.851562 8.292969 27.921875 12.328125 27.148438 13.882812 C 26.746094 14.628906 26.714844 14.597656 24.425781 11.738281 C 22.226562 8.976562 21.050781 8.074219 21.050781 9.128906 C 21.050781 9.628906 22.476562 12.113281 24.640625 15.371094 L 25.757812 17.050781 L 23.714844 20.15625 C 22.597656 21.863281 20.957031 24.007812 20.121094 24.9375 C 19.253906 25.871094 18.574219 26.800781 18.574219 26.988281 C 18.574219 28.601562 24.269531 23.664062 26.097656 20.433594 C 26.46875 19.78125 26.839844 19.253906 26.933594 19.253906 C 27.027344 19.253906 28.015625 20.960938 29.132812 23.042969 C 30.648438 25.933594 31.296875 26.894531 31.824219 26.957031 C 32.320312 27.050781 32.597656 26.832031 32.847656 26.210938 C 33.496094 24.441406 33.0625 23.445312 29.007812 17.765625 L 28.140625 16.523438 L 30.339844 12.113281 C 32.472656 7.824219 32.503906 7.671875 31.980469 7.082031 C 30.988281 5.960938 29.191406 5.28125 28.699219 5.808594 Z M 28.699219 5.808594 "/>
<path style=" stroke:none;fill-rule:nonzero;fill:rgb(0%,0%,0%);fill-opacity:1;" d="M 71.324219 7.453125 C 69.5 7.824219 53.464844 9.597656 49.964844 9.84375 C 48.355469 9.9375 46.929688 10.1875 46.839844 10.339844 C 46.558594 10.808594 47.859375 11.738281 49.128906 11.988281 C 49.808594 12.113281 51.730469 11.925781 53.988281 11.554688 C 60.492188 10.402344 63.402344 10.15625 71.109375 10.09375 C 79.003906 10.0625 79.777344 9.9375 79.066406 8.757812 C 78.199219 7.328125 74.855469 6.769531 71.324219 7.453125 Z M 71.324219 7.453125 "/>
<path style=" stroke:none;fill-rule:nonzero;fill:rgb(0%,0%,0%);fill-opacity:1;" d="M 237.101562 10.933594 C 237.070312 11.148438 237.101562 11.800781 237.132812 12.359375 C 237.195312 13.726562 236.855469 16.210938 236.515625 16.769531 C 236.296875 17.144531 235.925781 16.925781 234.65625 15.683594 C 233.480469 14.535156 233.015625 14.253906 232.738281 14.535156 C 232.398438 14.875 232.367188 14.875 234.84375 18.355469 L 235.617188 19.503906 L 234.503906 21.769531 C 233.851562 23.042969 232.800781 24.78125 232.148438 25.683594 C 230.820312 27.484375 230.664062 27.949219 231.5 27.949219 C 232.179688 27.949219 234.535156 25.527344 235.957031 23.355469 C 237.164062 21.523438 237.195312 21.523438 238.464844 24.097656 C 239.457031 26.085938 240.042969 26.613281 240.695312 26.085938 C 241.777344 25.1875 241.097656 22.765625 239.085938 20.3125 L 238.03125 19.007812 L 239.144531 15.960938 C 239.734375 14.253906 240.230469 12.640625 240.230469 12.359375 C 240.230469 11.273438 237.195312 9.90625 237.101562 10.933594 Z M 237.101562 10.933594 "/>
<path style=" stroke:none;fill-rule:nonzero;fill:rgb(0%,0%,0%);fill-opacity:1;" d="M 229.613281 11.398438 C 229.519531 11.554688 229.457031 12.328125 229.425781 13.199219 C 229.425781 14.039062 229.238281 15.28125 228.992188 15.960938 L 228.589844 17.175781 L 227.105469 15.402344 C 225.648438 13.726562 224.75 13.199219 224.75 14.097656 C 224.75 14.347656 225.371094 15.558594 226.144531 16.800781 C 226.917969 18.042969 227.539062 19.253906 227.539062 19.472656 C 227.539062 20 225.957031 23.167969 224.410156 25.714844 C 223.730469 26.800781 223.203125 27.824219 223.203125 27.980469 C 223.203125 29.253906 226.269531 26.304688 227.847656 23.476562 C 228.402344 22.515625 228.898438 21.738281 228.960938 21.738281 C 229.023438 21.738281 229.425781 22.515625 229.859375 23.445312 C 230.417969 24.71875 230.757812 25.15625 231.222656 25.15625 C 232.613281 25.15625 232.460938 22.546875 230.941406 20.339844 L 230.015625 18.976562 L 231.253906 16.085938 C 231.933594 14.503906 232.492188 13.011719 232.492188 12.796875 C 232.492188 12.390625 230.726562 11.179688 230.105469 11.179688 C 229.921875 11.179688 229.671875 11.273438 229.613281 11.398438 Z M 229.613281 11.398438 "/>
<path style=" stroke:none;fill-rule:nonzero;fill:rgb(0%,0%,0%);fill-opacity:1;" d="M 67.085938 12.917969 C 66.835938 13.199219 64.980469 13.601562 60.925781 14.285156 C 58.105469 14.75 57.054688 14.8125 56.3125 14.535156 C 54.792969 14.007812 54.515625 14.597656 55.476562 16.367188 C 56.1875 17.703125 56.835938 19.597656 57.394531 22.113281 C 57.613281 23.074219 58.632812 23.324219 58.941406 22.484375 C 59.066406 22.144531 59.4375 22.050781 60.273438 22.113281 C 61.730469 22.234375 61.851562 22.609375 61.882812 27.203125 C 61.914062 31.492188 61.699219 31.925781 59.71875 31.429688 C 58.972656 31.242188 58.230469 31.210938 58.105469 31.335938 C 57.953125 31.492188 58.449219 32.515625 59.191406 33.601562 C 59.933594 34.71875 60.675781 35.871094 60.863281 36.179688 C 61.386719 37.113281 62.6875 36.554688 63.617188 35 C 64.359375 33.695312 64.390625 33.476562 64.390625 28.011719 C 64.390625 24.597656 64.269531 22.328125 64.082031 22.203125 C 63.371094 21.769531 63.894531 21.492188 65.9375 21.304688 C 68.476562 21.054688 69.066406 20.621094 68.820312 19.160156 C 68.695312 18.230469 68.820312 17.980469 70.085938 16.863281 C 70.863281 16.179688 71.511719 15.402344 71.511719 15.125 C 71.511719 14.128906 67.765625 12.234375 67.085938 12.917969 Z M 67.175781 15.652344 C 67.175781 16.554688 66.1875 18.820312 65.660156 19.160156 C 64.949219 19.628906 60.304688 20.589844 59.53125 20.433594 C 59.160156 20.371094 58.910156 19.8125 58.632812 18.324219 C 58.449219 17.203125 58.292969 16.273438 58.324219 16.242188 C 58.449219 16.085938 66.464844 15.03125 66.804688 15.15625 C 66.992188 15.21875 67.175781 15.464844 67.175781 15.652344 Z M 67.175781 15.652344 "/>
<path style=" stroke:none;fill-rule:nonzero;fill:rgb(0%,0%,0%);fill-opacity:1;" d="M 145.625 15.371094 C 145.5 15.652344 145.625 16.304688 145.839844 16.863281 C 146.429688 18.199219 146.398438 28.136719 145.808594 31.367188 C 145.3125 34.253906 145.34375 35.527344 146.058594 36.957031 C 146.738281 38.355469 147.699219 38.539062 148.316406 37.359375 C 148.625 36.707031 148.78125 34.347656 148.90625 27.328125 C 149 22.296875 149.183594 17.980469 149.308594 17.765625 C 149.773438 17.050781 149.152344 16.085938 147.882812 15.496094 C 146.304688 14.78125 145.839844 14.75 145.625 15.371094 Z M 145.625 15.371094 "/>
<path style=" stroke:none;fill-rule:nonzero;fill:rgb(0%,0%,0%);fill-opacity:1;" d="M 274.34375 16.429688 C 274.035156 16.613281 274.035156 16.957031 274.3125 18.105469 C 274.625 19.160156 274.625 19.96875 274.375 21.335938 C 273.292969 27.113281 270.351562 30.839844 264.316406 34.128906 C 263.167969 34.75 262.210938 35.433594 262.210938 35.683594 C 262.210938 36.398438 264.285156 35.871094 267.378906 34.316406 C 272.984375 31.523438 275.519531 28.136719 276.789062 21.738281 C 277.65625 17.359375 277.65625 17.328125 276.757812 16.894531 C 275.492188 16.304688 274.777344 16.148438 274.34375 16.429688 Z M 274.34375 16.429688 "/>
<path style=" stroke:none;fill-rule:nonzero;fill:rgb(0%,0%,0%);fill-opacity:1;" d="M 103.550781 19.253906 C 103.460938 19.410156 103.523438 19.8125 103.707031 20.15625 C 103.863281 20.496094 104.015625 21.398438 104.015625 22.144531 L 104.015625 23.507812 L 102.5625 23.695312 C 101.726562 23.789062 98.351562 24.097656 95.039062 24.378906 C 91.726562 24.660156 88.816406 24.96875 88.632812 25.03125 C 88.042969 25.1875 88.507812 26.054688 89.496094 26.554688 C 90.582031 27.144531 92.46875 27.144531 94.882812 26.582031 C 95.90625 26.335938 98.074219 25.992188 99.683594 25.777344 C 101.292969 25.589844 102.933594 25.402344 103.273438 25.339844 C 103.925781 25.25 103.925781 25.3125 103.925781 31.179688 C 103.925781 37.234375 104.171875 38.820312 105.101562 38.820312 C 105.96875 38.820312 106.277344 37.144531 106.460938 31.210938 L 106.648438 25.3125 L 109.28125 25.0625 C 110.734375 24.9375 114.234375 24.875 117.050781 24.96875 C 122.46875 25.15625 123.179688 25 122.558594 23.882812 C 122.40625 23.539062 121.878906 23.105469 121.414062 22.855469 C 119.835938 22.050781 117.949219 21.988281 113.460938 22.640625 C 111.074219 23.011719 108.597656 23.292969 107.917969 23.292969 L 106.742188 23.292969 L 106.925781 21.613281 L 107.144531 19.96875 L 106.089844 19.441406 C 104.882812 18.882812 103.832031 18.789062 103.550781 19.253906 Z M 103.550781 19.253906 "/>
<path style=" stroke:none;fill-rule:nonzero;fill:rgb(0%,0%,0%);fill-opacity:1;" d="M 53.554688 24.84375 C 53.339844 25.339844 52.691406 26.429688 52.132812 27.234375 C 50.089844 30.125 50.429688 32.703125 52.78125 31.800781 C 53.554688 31.492188 55.042969 29.128906 55.445312 27.546875 C 56.09375 24.84375 54.515625 22.515625 53.554688 24.84375 Z M 53.554688 24.84375 "/>
<path style=" stroke:none;fill-rule:nonzero;fill:rgb(0%,0%,0%);fill-opacity:1;" d="M 67.640625 24.84375 C 67.363281 25.3125 73.277344 31.367188 73.988281 31.367188 C 74.824219 31.367188 75.226562 30.683594 75.226562 29.160156 C 75.226562 27.421875 74.390625 26.367188 72.285156 25.433594 C 70.488281 24.628906 67.984375 24.316406 67.640625 24.84375 Z M 67.640625 24.84375 "/>
<path style=" stroke:none;fill-rule:nonzero;fill:rgb(0%,0%,0%);fill-opacity:1;" d="M 276.046875 26.925781 C 275.953125 27.082031 277.96875 29.347656 280.503906 31.988281 C 284.4375 36.085938 285.210938 36.738281 285.675781 36.460938 C 286.417969 35.992188 286.542969 33.539062 285.890625 32.296875 C 285.242188 31.023438 283.351562 29.6875 279.949219 28.074219 C 277.101562 26.707031 276.296875 26.492188 276.046875 26.925781 Z M 276.046875 26.925781 "/>
</g>
</svg>
