<?xml version="1.0" encoding="UTF-8"?>
<svg xmlns="http://www.w3.org/2000/svg" xmlns:xlink="http://www.w3.org/1999/xlink" width="514pt" height="37pt" viewBox="0 0 514 37" version="1.1">
<g id="surface1">
<path style=" stroke:none;fill-rule:nonzero;fill:rgb(0%,0%,0%);fill-opacity:1;" d="M 409.269531 1.511719 C 409.195312 1.703125 408.894531 2.394531 408.59375 3.054688 C 406.78125 7.039062 404.449219 10.410156 401.441406 13.414062 C 400.679688 14.164062 400.0625 14.8125 400.0625 14.867188 C 400.0625 14.914062 400.207031 15.027344 400.390625 15.097656 C 400.5625 15.1875 401.253906 15.691406 401.914062 16.210938 C 402.578125 16.730469 403.167969 17.164062 403.222656 17.164062 C 403.28125 17.164062 403.816406 16.585938 404.390625 15.867188 L 405.457031 14.582031 L 405.527344 23.191406 L 405.601562 31.800781 L 406.003906 32.609375 C 406.40625 33.445312 406.953125 33.921875 407.972656 34.339844 C 408.75 34.640625 426.773438 34.714844 428.242188 34.410156 C 430.070312 34.019531 431.0625 33.054688 432.011719 30.761719 C 432.816406 28.8125 432.816406 28.898438 432.183594 28.785156 C 431.347656 28.65625 430.214844 28.066406 429.492188 27.402344 C 428.746094 26.707031 428.878906 26.597656 428.488281 28.484375 C 428.15625 30.113281 427.96875 30.71875 427.679688 31.007812 C 427.148438 31.539062 426.167969 31.597656 417.957031 31.554688 C 410.835938 31.511719 410.015625 31.484375 409.613281 31.265625 C 408.777344 30.820312 408.691406 30.371094 408.691406 26.984375 L 408.691406 23.941406 L 421.421875 23.941406 L 421.421875 13.125 L 414.058594 13.125 C 410.003906 13.125 406.679688 13.09375 406.679688 13.050781 C 406.679688 13.023438 407.269531 12.183594 407.984375 11.21875 C 408.703125 10.238281 409.324219 9.359375 409.371094 9.257812 C 409.425781 9.128906 411.28125 9.085938 418 9.085938 L 426.558594 9.085938 L 426.472656 10.339844 C 426.429688 11.046875 426.289062 13.65625 426.167969 16.152344 C 425.867188 22.582031 425.851562 22.65625 424.660156 22.917969 C 424.257812 23.003906 423.554688 23.074219 423.105469 23.074219 C 421.953125 23.074219 421.839844 23.191406 422.230469 23.855469 C 422.398438 24.15625 422.71875 24.921875 422.945312 25.570312 C 423.335938 26.707031 423.378906 26.753906 423.824219 26.796875 C 424.457031 26.855469 427.003906 26.191406 427.625 25.8125 C 428.210938 25.441406 428.746094 24.5625 428.960938 23.582031 C 429.046875 23.175781 429.28125 19.6875 429.480469 15.792969 C 429.695312 11.910156 429.910156 8.277344 429.984375 7.714844 C 430.054688 7.167969 430.128906 6.589844 430.128906 6.460938 C 430.128906 6.214844 429.550781 6.203125 420.703125 6.171875 L 411.28125 6.128906 L 411.914062 5.175781 C 412.261719 4.660156 412.847656 3.949219 413.210938 3.605469 L 413.871094 2.96875 L 412.605469 2.523438 C 411.914062 2.261719 410.910156 1.859375 410.375 1.613281 L 409.394531 1.167969 Z M 418.1875 18.53125 L 418.1875 21.058594 L 408.691406 21.058594 L 408.691406 16.007812 L 418.1875 16.007812 Z M 418.1875 18.53125 "/>
<path style=" stroke:none;fill-rule:nonzero;fill:rgb(0%,0%,0%);fill-opacity:1;" d="M 97.976562 1.457031 C 97.777344 1.527344 97.070312 1.734375 96.398438 1.90625 C 95.71875 2.0625 95.101562 2.25 95.03125 2.320312 C 94.960938 2.382812 95.175781 3.027344 95.476562 3.777344 C 95.789062 4.511719 96.09375 5.261719 96.152344 5.4375 L 96.253906 5.769531 L 81.851562 5.769531 L 81.851562 13.050781 L 83.648438 13.011719 L 85.449219 12.964844 L 85.449219 8.652344 L 97.289062 8.683594 L 109.113281 8.726562 L 109.160156 10.640625 L 109.199219 12.5625 L 110.925781 12.519531 L 112.667969 12.476562 L 112.679688 9.128906 L 112.707031 5.769531 L 100.195312 5.769531 L 99.648438 4.167969 C 98.957031 2.175781 98.585938 1.300781 98.441406 1.3125 C 98.378906 1.3125 98.167969 1.382812 97.976562 1.457031 Z M 97.976562 1.457031 "/>
<path style=" stroke:none;fill-rule:nonzero;fill:rgb(0%,0%,0%);fill-opacity:1;" d="M 182.480469 1.890625 C 181.847656 2.121094 181.183594 2.308594 181.011719 2.308594 C 180.609375 2.308594 180.597656 2.582031 180.957031 3.289062 C 181.183594 3.75 181.746094 5.347656 182.046875 6.472656 L 182.148438 6.808594 L 177.675781 6.765625 L 173.199219 6.707031 L 173.199219 9.621094 L 176.511719 9.546875 C 178.339844 9.503906 179.820312 9.519531 179.820312 9.589844 C 179.820312 9.648438 179.558594 10.226562 179.257812 10.890625 C 177.792969 14.03125 175.628906 16.46875 173.949219 16.871094 L 173.246094 17.03125 L 173.863281 18.503906 C 174.207031 19.308594 174.5 20.0625 174.5 20.175781 C 174.5 20.277344 174.582031 20.335938 174.710938 20.277344 C 175.171875 20.105469 177.660156 19.714844 177.761719 19.816406 C 177.949219 19.988281 177.976562 22.308594 177.816406 24.183594 C 177.589844 27.085938 176.8125 29.089844 175.226562 30.875 C 174.570312 31.628906 172.957031 32.910156 171.75 33.648438 L 170.929688 34.121094 L 171.835938 34.523438 C 172.453125 34.785156 172.96875 35.160156 173.417969 35.636719 L 174.09375 36.359375 L 174.828125 35.78125 C 175.847656 34.988281 177.390625 33.457031 178.167969 32.449219 C 179.992188 30.070312 180.738281 27.214844 180.929688 21.949219 L 181.011719 19.324219 L 181.675781 19.324219 C 182.035156 19.324219 182.582031 19.285156 182.882812 19.238281 L 183.417969 19.136719 L 183.417969 25.542969 C 183.417969 29.378906 183.488281 32.207031 183.574219 32.59375 C 183.789062 33.546875 184.308594 34.238281 185.097656 34.628906 C 185.730469 34.945312 186.007812 34.972656 188.292969 35.015625 C 191.082031 35.074219 191.628906 34.988281 192.390625 34.3125 C 193.082031 33.703125 193.542969 32.851562 194.132812 31.125 C 194.695312 29.464844 194.722656 29.582031 193.554688 29.292969 C 193.238281 29.203125 192.535156 28.875 192.015625 28.554688 C 191.488281 28.238281 191.027344 27.980469 190.980469 27.980469 C 190.925781 27.980469 190.894531 28.191406 190.894531 28.46875 C 190.894531 29.203125 190.507812 31.066406 190.261719 31.554688 C 189.976562 32.105469 189.800781 32.160156 188.449219 32.160156 C 187.457031 32.160156 187.269531 32.117188 186.910156 31.816406 L 186.507812 31.46875 L 186.507812 18.964844 L 187.644531 18.832031 C 188.597656 18.734375 188.808594 18.75 188.9375 18.921875 C 189.023438 19.050781 189.414062 19.585938 189.789062 20.105469 L 190.480469 21.070312 L 191.15625 20.578125 C 191.527344 20.304688 192.207031 19.859375 192.667969 19.585938 L 193.484375 19.082031 L 192.117188 17.089844 C 190.695312 15.027344 188.636719 12.328125 188.160156 11.898438 C 187.890625 11.652344 187.84375 11.652344 187.054688 12.214844 C 186.59375 12.535156 185.949219 12.9375 185.601562 13.113281 L 184.980469 13.425781 L 185.316406 13.886719 C 185.515625 14.148438 186.007812 14.796875 186.421875 15.359375 L 187.1875 16.371094 L 186.046875 16.46875 C 184.667969 16.601562 178.609375 16.859375 178.550781 16.800781 C 178.421875 16.671875 182.21875 12.34375 182.980469 11.753906 L 183.847656 11.0625 L 182.710938 10.429688 C 182.078125 10.082031 181.515625 9.71875 181.460938 9.632812 C 181.386719 9.535156 183.15625 9.503906 187.5 9.535156 L 193.628906 9.589844 L 193.628906 6.707031 L 188.207031 6.734375 C 185.210938 6.75 182.839844 6.734375 182.910156 6.707031 C 182.996094 6.679688 183.601562 6.488281 184.277344 6.289062 C 184.953125 6.101562 185.5 5.882812 185.5 5.800781 C 185.5 5.453125 183.90625 1.457031 183.773438 1.472656 C 183.699219 1.472656 183.113281 1.671875 182.480469 1.890625 Z M 182.480469 1.890625 "/>
<path style=" stroke:none;fill-rule:nonzero;fill:rgb(0%,0%,0%);fill-opacity:1;" d="M 367.75 1.832031 C 367.578125 2.523438 366.183594 5.929688 365.535156 7.210938 C 363.792969 10.6875 361.160156 14.765625 359.550781 16.46875 C 359.207031 16.84375 358.917969 17.203125 358.917969 17.277344 C 358.917969 17.351562 359.191406 17.652344 359.539062 17.972656 C 359.867188 18.273438 360.414062 18.851562 360.730469 19.238281 L 361.320312 19.933594 L 363.175781 17.335938 C 364.195312 15.890625 365.074219 14.726562 365.144531 14.726562 C 365.40625 14.695312 365.203125 34.425781 364.929688 35.796875 C 364.902344 35.941406 365.320312 35.996094 366.746094 36.027344 L 368.585938 36.070312 L 368.46875 35.734375 C 368.414062 35.550781 368.339844 29.59375 368.3125 22.480469 L 368.253906 9.546875 L 368.972656 7.945312 C 369.847656 6 370.726562 4.46875 371.390625 3.75 L 371.878906 3.203125 L 371.117188 2.957031 C 370.699219 2.8125 369.808594 2.421875 369.144531 2.074219 C 368.484375 1.734375 367.925781 1.441406 367.894531 1.441406 C 367.867188 1.441406 367.792969 1.613281 367.75 1.832031 Z M 367.75 1.832031 "/>
<path style=" stroke:none;fill-rule:nonzero;fill:rgb(0%,0%,0%);fill-opacity:1;" d="M 494.644531 3.621094 L 494.761719 5.800781 L 488.445312 5.726562 C 484.964844 5.679688 481.914062 5.597656 481.671875 5.539062 L 481.195312 5.453125 L 481.195312 8.683594 L 481.742188 8.59375 C 482.03125 8.539062 485.078125 8.464844 488.503906 8.421875 L 494.71875 8.335938 L 494.71875 11.972656 L 482.058594 11.972656 L 482.160156 13.65625 C 482.234375 14.59375 482.273438 19.253906 482.273438 24.011719 C 482.273438 28.773438 482.234375 33.429688 482.160156 34.351562 L 482.058594 36.054688 L 485.367188 36.054688 L 485.367188 14.566406 L 507.378906 14.566406 L 507.347656 23.4375 C 507.320312 30.457031 507.261719 32.335938 507.117188 32.476562 C 506.988281 32.609375 506.371094 32.679688 505.21875 32.710938 C 504.269531 32.738281 503.492188 32.78125 503.492188 32.808594 C 503.492188 32.839844 503.78125 33.53125 504.140625 34.367188 C 504.5 35.203125 504.789062 35.96875 504.789062 36.070312 C 504.789062 36.257812 504.929688 36.242188 507.347656 35.679688 C 509.175781 35.261719 509.632812 34.972656 510.054688 34.007812 C 510.296875 33.429688 510.328125 32.667969 510.429688 23.148438 C 510.46875 17.507812 510.570312 12.691406 510.613281 12.433594 L 510.710938 11.972656 L 497.738281 11.972656 L 497.738281 8.335938 L 504.859375 8.394531 L 511.980469 8.4375 L 511.980469 5.699219 L 504.84375 5.738281 L 497.691406 5.800781 L 497.839844 1.441406 L 494.546875 1.441406 Z M 494.644531 3.621094 "/>
<path style=" stroke:none;fill-rule:nonzero;fill:rgb(0%,0%,0%);fill-opacity:1;" d="M 49.917969 2.035156 C 49.082031 2.25 48.421875 2.480469 48.4375 2.554688 C 48.453125 2.625 48.621094 3.332031 48.824219 4.136719 C 49.023438 4.945312 49.195312 5.652344 49.195312 5.710938 C 49.195312 5.753906 47.574219 5.78125 45.601562 5.738281 L 41.992188 5.679688 L 42.035156 7.183594 L 42.078125 8.664062 L 50.324219 8.695312 L 58.550781 8.726562 L 58.550781 5.652344 L 55.554688 5.726562 L 52.5625 5.8125 L 52.132812 3.75 C 51.902344 2.613281 51.644531 1.671875 51.574219 1.660156 C 51.484375 1.644531 50.75 1.816406 49.917969 2.035156 Z M 49.917969 2.035156 "/>
<path style=" stroke:none;fill-rule:nonzero;fill:rgb(0%,0%,0%);fill-opacity:1;" d="M 326.046875 2.121094 C 325.800781 3.578125 325.5 5.078125 325.230469 6.113281 L 324.925781 7.242188 L 322.507812 7.183594 L 320.078125 7.121094 L 320.078125 9.964844 L 322.164062 9.867188 C 323.929688 9.777344 324.25 9.792969 324.191406 9.964844 C 323.152344 13.210938 322.394531 15.289062 321.789062 16.46875 C 321.617188 16.800781 321.171875 17.378906 320.769531 17.78125 L 320.050781 18.503906 L 320.652344 19.886719 C 321 20.652344 321.269531 21.285156 321.285156 21.300781 C 321.300781 21.316406 321.917969 21.230469 322.664062 21.113281 C 323.414062 21 324.855469 20.867188 325.875 20.808594 L 327.699219 20.726562 L 327.699219 25.496094 L 327.3125 25.585938 C 326.738281 25.699219 322.234375 26.21875 320.839844 26.335938 L 319.660156 26.421875 L 320.0625 27.242188 C 320.292969 27.6875 320.582031 28.398438 320.710938 28.800781 C 320.855469 29.21875 320.984375 29.5625 321.011719 29.5625 C 321.039062 29.5625 321.730469 29.40625 322.550781 29.21875 C 323.359375 29.019531 324.753906 28.730469 325.617188 28.554688 C 326.496094 28.382812 327.328125 28.210938 327.472656 28.164062 C 327.746094 28.089844 327.746094 28.191406 327.644531 32.21875 L 327.542969 36.34375 L 330.808594 36.34375 L 330.75 32.03125 L 330.691406 27.734375 L 332.679688 27.429688 C 333.785156 27.257812 335.039062 27.101562 335.46875 27.085938 L 336.261719 27.039062 L 336.332031 25.671875 C 336.375 24.921875 336.390625 24.269531 336.375 24.246094 C 336.363281 24.214844 335.484375 24.332031 334.433594 24.488281 C 333.382812 24.664062 332.121094 24.832031 331.628906 24.894531 L 330.722656 24.992188 L 330.722656 20.765625 L 333.570312 20.738281 L 336.402344 20.695312 L 336.449219 19.425781 L 336.492188 18.171875 L 330.679688 18.171875 L 330.78125 15.890625 C 330.820312 14.65625 330.910156 13.414062 330.953125 13.152344 L 331.039062 12.691406 L 327.542969 12.691406 L 327.644531 15.429688 L 327.746094 18.171875 L 325.933594 18.171875 C 324.925781 18.171875 324.105469 18.15625 324.105469 18.128906 C 324.105469 18.097656 324.378906 17.363281 324.695312 16.5 C 325.023438 15.636719 325.703125 13.785156 326.203125 12.402344 L 327.097656 9.878906 L 329.742188 9.878906 C 331.199219 9.878906 333.109375 9.921875 334.003906 9.996094 L 335.628906 10.097656 L 335.542969 7.152344 L 331.757812 7.195312 L 327.960938 7.242188 L 328.0625 6.894531 C 328.550781 5.320312 329.210938 3.75 329.558594 3.300781 L 329.988281 2.769531 L 329.242188 2.582031 C 328.578125 2.421875 327.042969 1.933594 326.378906 1.660156 C 326.175781 1.585938 326.117188 1.671875 326.046875 2.121094 Z M 326.046875 2.121094 "/>
<path style=" stroke:none;fill-rule:nonzero;fill:rgb(0%,0%,0%);fill-opacity:1;" d="M 380.84375 2.121094 C 380.882812 2.421875 380.972656 4.46875 381.015625 6.664062 L 381.113281 10.671875 L 378.496094 10.671875 C 376.335938 10.671875 375.894531 10.640625 375.894531 10.46875 C 375.894531 10.152344 377.03125 6.9375 377.417969 6.15625 C 377.617188 5.78125 377.835938 5.480469 377.90625 5.480469 C 377.992188 5.480469 378.050781 5.421875 378.050781 5.367188 C 378.050781 5.292969 377.648438 5.136719 377.160156 4.992188 C 376.667969 4.859375 375.804688 4.527344 375.230469 4.269531 L 374.195312 3.777344 L 373.878906 5.394531 C 373.246094 8.566406 371.9375 12.476562 370.527344 15.429688 C 370.125 16.269531 369.777344 16.972656 369.75 17.019531 C 369.722656 17.0625 370.140625 17.277344 370.671875 17.507812 C 371.21875 17.742188 371.894531 18.085938 372.195312 18.273438 C 372.511719 18.476562 372.773438 18.605469 372.800781 18.574219 C 372.828125 18.546875 373.304688 17.421875 373.847656 16.078125 L 374.855469 13.625 L 377.964844 13.585938 L 381.074219 13.554688 L 381.074219 21.070312 L 375.574219 21.039062 L 370.066406 21.011719 L 370.023438 22.527344 L 369.980469 24.054688 L 375.546875 23.96875 L 381.101562 23.894531 L 381.015625 29.363281 C 380.972656 32.363281 380.898438 35.101562 380.84375 35.449219 L 380.753906 36.054688 L 384.308594 36.054688 L 384.25 29.984375 L 384.207031 23.894531 L 388.824219 23.96875 L 393.445312 24.042969 L 393.445312 20.738281 L 392.984375 20.828125 C 392.722656 20.882812 390.65625 20.957031 388.382812 21.011719 L 384.238281 21.097656 L 384.238281 13.542969 L 392.292969 13.625 L 392.292969 10.558594 L 388.25 10.628906 L 384.207031 10.714844 L 384.296875 6.691406 C 384.335938 4.488281 384.40625 2.421875 384.46875 2.121094 L 384.554688 1.585938 L 380.753906 1.585938 Z M 380.84375 2.121094 "/>
<path style=" stroke:none;fill-rule:nonzero;fill:rgb(0%,0%,0%);fill-opacity:1;" d="M 286.300781 5.710938 L 286.375 9.535156 L 283.578125 9.488281 L 280.804688 9.449219 L 280.804688 12.417969 L 283.21875 12.402344 C 284.546875 12.402344 285.695312 12.390625 285.796875 12.402344 C 285.914062 12.402344 285.855469 12.707031 285.625 13.367188 C 284.257812 17.351562 282.660156 20.507812 280.328125 23.855469 C 279.652344 24.820312 279.398438 25.3125 279.507812 25.382812 C 279.609375 25.441406 280.226562 26.035156 280.890625 26.679688 C 281.554688 27.34375 282.128906 27.847656 282.167969 27.820312 C 282.429688 27.546875 284.300781 24.214844 285.207031 22.382812 C 285.808594 21.183594 286.328125 20.191406 286.375 20.191406 C 286.398438 20.191406 286.398438 23.664062 286.359375 27.90625 L 286.269531 35.636719 L 287.953125 35.59375 C 289.375 35.550781 289.636719 35.523438 289.59375 35.332031 C 289.496094 34.859375 289.449219 12.75 289.550781 12.574219 C 289.652344 12.433594 290.226562 12.402344 292.066406 12.433594 L 294.472656 12.476562 L 294.472656 9.449219 L 291.984375 9.488281 L 289.476562 9.535156 L 289.449219 8.695312 C 289.425781 7.613281 289.695312 2.625 289.808594 2.191406 C 289.898438 1.875 289.898438 1.875 288.070312 1.875 L 286.230469 1.875 Z M 286.300781 5.710938 "/>
<path style=" stroke:none;fill-rule:nonzero;fill:rgb(0%,0%,0%);fill-opacity:1;" d="M 72.058594 2.089844 C 71.914062 2.222656 68.648438 3.015625 67.023438 3.300781 C 66.113281 3.460938 64.5625 3.664062 63.570312 3.75 C 62.589844 3.835938 61.527344 3.9375 61.210938 3.980469 L 60.632812 4.035156 L 60.632812 12.804688 C 60.632812 21.9375 60.605469 22.441406 59.972656 25.597656 C 59.382812 28.441406 58.042969 31.902344 56.765625 33.777344 C 56.59375 34.035156 56.40625 34.324219 56.347656 34.425781 C 56.230469 34.628906 59.210938 36.097656 59.441406 35.957031 C 59.671875 35.824219 61.09375 32.75 61.65625 31.179688 C 62.9375 27.660156 63.714844 22.425781 63.730469 17.410156 L 63.730469 16.152344 L 67.914062 16.152344 L 67.871094 26.035156 L 67.828125 35.910156 L 70.992188 35.910156 L 70.949219 26.003906 L 70.890625 16.109375 L 74.375 16.308594 L 74.375 13.195312 L 69.050781 13.253906 L 63.730469 13.296875 L 63.753906 9.867188 L 63.800781 6.417969 L 65.882812 6.171875 C 67.035156 6.042969 69.007812 5.855469 70.273438 5.769531 C 71.539062 5.679688 72.976562 5.578125 73.46875 5.539062 L 74.375 5.453125 L 73.914062 4.902344 C 73.652344 4.597656 73.148438 3.835938 72.792969 3.1875 C 72.417969 2.554688 72.085938 2.046875 72.058594 2.089844 Z M 72.058594 2.089844 "/>
<path style=" stroke:none;fill-rule:nonzero;fill:rgb(0%,0%,0%);fill-opacity:1;" d="M 339.839844 2.40625 C 338.964844 6.34375 337.300781 10.355469 335.183594 13.585938 C 334.710938 14.304688 334.332031 14.914062 334.347656 14.925781 C 334.378906 14.9375 334.710938 15.042969 335.082031 15.144531 C 335.453125 15.242188 336.132812 15.546875 336.578125 15.804688 C 337.007812 16.078125 337.425781 16.296875 337.46875 16.296875 C 337.527344 16.296875 338.175781 15.15625 338.90625 13.773438 L 340.246094 11.25 L 344.546875 11.25 C 347.480469 11.25 348.847656 11.292969 348.847656 11.410156 C 348.847656 11.480469 348.558594 12.445312 348.199219 13.542969 C 347.839844 14.636719 347.554688 15.589844 347.554688 15.660156 C 347.554688 15.777344 350.703125 16.511719 350.789062 16.410156 C 350.804688 16.382812 351.019531 15.574219 351.277344 14.59375 C 351.539062 13.613281 352.027344 11.925781 352.386719 10.847656 C 352.734375 9.777344 353.019531 8.839844 353.019531 8.765625 C 353.019531 8.714844 350.328125 8.652344 347.050781 8.652344 C 343.769531 8.652344 341.078125 8.625 341.078125 8.59375 C 341.078125 8.566406 341.308594 7.976562 341.597656 7.269531 C 342.246094 5.625 343.007812 4.226562 343.554688 3.664062 C 344.042969 3.144531 344.015625 3.101562 343.035156 2.96875 C 342.429688 2.871094 340.878906 2.40625 340.191406 2.105469 C 340 2.019531 339.914062 2.074219 339.839844 2.40625 Z M 339.839844 2.40625 "/>
<path style=" stroke:none;fill-rule:nonzero;fill:rgb(0%,0%,0%);fill-opacity:1;" d="M 165.722656 2.984375 C 165.476562 4.109375 164.972656 5.480469 164.039062 7.574219 C 162.613281 10.6875 161.359375 12.476562 160.199219 13.082031 C 159.949219 13.195312 159.722656 13.324219 159.707031 13.355469 C 159.679688 13.367188 159.867188 14.046875 160.125 14.855469 C 160.582031 16.253906 160.613281 16.308594 160.972656 16.210938 C 162.742188 15.765625 166.730469 15.289062 166.730469 15.53125 C 166.730469 15.707031 164.972656 18.675781 164.179688 19.828125 C 163.363281 21.058594 162.453125 21.90625 161.589844 22.308594 C 161.175781 22.511719 160.828125 22.714844 160.828125 22.789062 C 160.828125 22.902344 161.851562 25.699219 161.9375 25.800781 C 161.953125 25.828125 162.484375 25.726562 163.089844 25.554688 C 164.945312 25.054688 166.09375 24.832031 168.8125 24.53125 C 173.058594 24.042969 172.582031 24.183594 172.699219 23.320312 C 172.757812 22.902344 172.929688 22.25 173.070312 21.863281 C 173.214844 21.460938 173.320312 21.128906 173.289062 21.097656 C 173.257812 21.070312 172.4375 21.183594 171.460938 21.34375 C 169.042969 21.734375 165.992188 22.09375 165.90625 22.007812 C 165.808594 21.90625 169.9375 15.300781 171.1875 13.527344 C 171.707031 12.804688 172.46875 11.851562 172.886719 11.410156 C 173.34375 10.917969 173.5625 10.585938 173.460938 10.539062 C 173.214844 10.457031 170.941406 9.273438 170.367188 8.925781 C 169.863281 8.609375 169.863281 8.625 169.601562 9.449219 C 169.503906 9.765625 169.128906 10.660156 168.769531 11.421875 L 168.121094 12.835938 L 167.085938 12.835938 C 166.511719 12.835938 165.550781 12.878906 164.945312 12.921875 L 163.839844 13.023438 L 164.683594 11.59375 C 165.144531 10.816406 166.066406 9.199219 166.742188 8.015625 C 167.402344 6.835938 168.324219 5.421875 168.785156 4.875 C 169.246094 4.328125 169.601562 3.851562 169.578125 3.824219 C 169.546875 3.792969 166.960938 2.613281 166.050781 2.222656 C 165.953125 2.160156 165.820312 2.4375 165.722656 2.984375 Z M 165.722656 2.984375 "/>
<path style=" stroke:none;fill-rule:nonzero;fill:rgb(0%,0%,0%);fill-opacity:1;" d="M 445.074219 2.261719 C 445.058594 2.335938 445.074219 4.183594 445.089844 6.402344 L 445.117188 10.429688 L 442.828125 10.308594 C 441.578125 10.257812 440.496094 10.195312 440.414062 10.183594 C 440.328125 10.183594 440.253906 10.761719 440.226562 11.640625 L 440.179688 13.125 L 445.089844 13.125 L 445.058594 16.324219 L 445.015625 19.542969 L 443.433594 20.074219 C 442.570312 20.363281 441.21875 20.753906 440.441406 20.925781 C 439.679688 21.113281 439.058594 21.285156 439.074219 21.332031 C 439.148438 21.476562 440.296875 24.429688 440.398438 24.703125 C 440.484375 24.964844 440.496094 24.964844 440.945312 24.691406 C 442.148438 23.953125 444.613281 22.789062 444.957031 22.789062 C 445.03125 22.789062 445.089844 24.734375 445.089844 27.113281 C 445.089844 32.476562 445.261719 32.105469 442.816406 31.960938 C 441.273438 31.875 441.175781 31.886719 441.273438 32.117188 C 441.332031 32.261719 441.546875 33.070312 441.765625 33.933594 L 442.136719 35.476562 L 443 35.390625 C 444.398438 35.246094 445.964844 34.902344 446.539062 34.597656 C 446.839844 34.453125 447.257812 34.109375 447.460938 33.835938 C 448.195312 32.851562 448.25 32.40625 448.25 26.824219 L 448.25 21.675781 L 449.230469 21.246094 C 449.761719 21 450.554688 20.679688 450.984375 20.535156 L 451.777344 20.277344 L 451.777344 16.902344 L 451.128906 17.164062 C 450.769531 17.308594 450.039062 17.621094 449.503906 17.871094 C 448.957031 18.113281 448.457031 18.316406 448.382812 18.316406 C 448.308594 18.316406 448.25 17.179688 448.25 15.722656 L 448.25 13.125 L 452.136719 13.125 L 452.136719 10.195312 L 450.179688 10.28125 L 448.207031 10.382812 L 448.28125 6.273438 L 448.367188 2.160156 L 446.726562 2.160156 C 445.820312 2.160156 445.089844 2.207031 445.074219 2.261719 Z M 445.074219 2.261719 "/>
<path style=" stroke:none;fill-rule:nonzero;fill:rgb(0%,0%,0%);fill-opacity:1;" d="M 453.460938 8.324219 C 453.503906 15.085938 453.488281 14.914062 454.410156 15.890625 C 455.027344 16.570312 455.644531 16.613281 462.855469 16.554688 C 470.320312 16.511719 470.234375 16.511719 471.199219 15.402344 C 471.613281 14.898438 472.996094 11.953125 472.996094 11.550781 C 472.996094 11.46875 472.722656 11.335938 472.390625 11.25 C 471.515625 11.03125 470.734375 10.671875 470.074219 10.195312 C 469.773438 9.964844 469.496094 9.804688 469.472656 9.835938 C 469.441406 9.867188 469.285156 10.484375 469.125 11.21875 C 468.753906 12.921875 468.578125 13.285156 467.960938 13.601562 C 467.5 13.832031 466.996094 13.847656 462.394531 13.816406 C 456.175781 13.757812 456.667969 13.976562 456.667969 11.4375 L 456.667969 9.75 L 457.675781 9.546875 C 458.554688 9.375 459.945312 9.070312 465.011719 7.929688 C 465.644531 7.785156 466.566406 7.574219 467.054688 7.441406 C 467.527344 7.3125 468.476562 7.109375 469.140625 6.980469 C 470.96875 6.648438 470.90625 6.71875 469.988281 5.839844 C 469.371094 5.25 468.21875 3.792969 468.035156 3.359375 C 468.015625 3.347656 467.441406 3.621094 466.75 3.996094 C 465.144531 4.832031 464.117188 5.234375 462.535156 5.710938 C 460.855469 6.203125 456.855469 7.066406 456.710938 6.980469 C 456.652344 6.9375 456.636719 5.839844 456.699219 4.527344 L 456.785156 2.160156 L 453.417969 2.160156 Z M 453.460938 8.324219 "/>
<path style=" stroke:none;fill-rule:nonzero;fill:rgb(0%,0%,0%);fill-opacity:1;" d="M 6.257812 7.574219 L 6.257812 12.835938 L 29.128906 12.835938 L 29.101562 7.613281 L 29.089844 2.382812 L 17.664062 2.335938 L 6.257812 2.308594 Z M 25.867188 5.652344 L 25.90625 6.488281 L 9.496094 6.488281 L 9.496094 4.757812 L 17.664062 4.789062 L 25.820312 4.832031 Z M 25.894531 9.734375 L 25.894531 10.527344 L 9.496094 10.527344 L 9.496094 8.941406 L 25.894531 8.941406 Z M 25.894531 9.734375 "/>
<path style=" stroke:none;fill-rule:nonzero;fill:rgb(0%,0%,0%);fill-opacity:1;" d="M 261.167969 2.683594 C 260.460938 2.871094 259.730469 3.027344 259.558594 3.027344 C 259.386719 3.027344 259.199219 3.085938 259.15625 3.171875 C 259.039062 3.375 260.121094 6.070312 261.054688 7.886719 C 262.765625 11.21875 263.746094 12.707031 265.640625 14.78125 C 266.636719 15.878906 270.460938 19.296875 271.082031 19.640625 C 271.207031 19.714844 271.4375 19.484375 271.785156 18.921875 C 272.332031 18.027344 273.125 17.132812 273.871094 16.570312 L 274.359375 16.199219 L 273.28125 15.765625 C 271.152344 14.886719 269.140625 13.355469 267.238281 11.148438 C 265.082031 8.625 263.585938 6.042969 262.894531 3.648438 C 262.691406 2.957031 262.519531 2.382812 262.492188 2.382812 C 262.480469 2.367188 261.886719 2.492188 261.167969 2.683594 Z M 261.167969 2.683594 "/>
<path style=" stroke:none;fill-rule:nonzero;fill:rgb(0%,0%,0%);fill-opacity:1;" d="M 309.042969 2.753906 C 307.203125 3.488281 302.496094 4.3125 298.542969 4.585938 C 297.566406 4.660156 296.742188 4.746094 296.703125 4.789062 C 296.65625 4.832031 296.6875 6.867188 296.789062 9.316406 C 297.164062 19.394531 296.527344 24.574219 294.382812 28.945312 C 293.652344 30.445312 293.046875 31.296875 291.925781 32.464844 L 291.164062 33.257812 L 292.054688 33.6875 C 292.542969 33.921875 293.363281 34.425781 293.867188 34.816406 C 294.371094 35.191406 294.832031 35.449219 294.886719 35.390625 C 295.625 34.523438 297.507812 31.023438 298.125 29.390625 C 299.117188 26.707031 300.082031 20.78125 300.082031 17.191406 L 300.082031 16.152344 L 305.707031 16.152344 L 305.621094 35.332031 L 308.929688 35.332031 L 308.882812 25.714844 L 308.828125 16.109375 L 311.433594 16.199219 L 314.035156 16.28125 L 314.035156 13.34375 L 307.058594 13.382812 L 300.082031 13.441406 L 300.082031 10.398438 C 300.082031 7.371094 300.082031 7.355469 300.414062 7.28125 C 301.117188 7.140625 308.773438 6.460938 310.683594 6.386719 L 312.710938 6.300781 L 311.964844 5.207031 C 311.546875 4.585938 310.984375 3.691406 310.710938 3.203125 C 310.453125 2.714844 310.195312 2.308594 310.152344 2.320312 C 310.109375 2.335938 309.621094 2.523438 309.042969 2.753906 Z M 309.042969 2.753906 "/>
<path style=" stroke:none;fill-rule:nonzero;fill:rgb(0%,0%,0%);fill-opacity:1;" d="M 221.8125 2.984375 C 221.8125 3.042969 221.8125 5.597656 221.824219 8.625 L 221.835938 14.164062 L 216.949219 14.105469 L 212.042969 14.0625 L 212.042969 17.179688 L 216.933594 17.078125 L 221.835938 16.972656 L 221.796875 26.507812 L 221.753906 36.054688 L 225.0625 36.054688 L 225.003906 26.507812 L 224.960938 16.972656 L 229.492188 17.046875 L 234.023438 17.132812 L 234.039062 15.589844 L 234.039062 14.0625 L 229.492188 14.117188 L 224.945312 14.164062 L 225.003906 8.566406 L 225.0625 2.957031 L 223.453125 2.914062 C 222.554688 2.898438 221.824219 2.925781 221.8125 2.984375 Z M 221.8125 2.984375 "/>
<path style=" stroke:none;fill-rule:nonzero;fill:rgb(0%,0%,0%);fill-opacity:1;" d="M 251.027344 4.84375 C 249.441406 7.859375 248.351562 9.558594 246.550781 11.769531 C 245.144531 13.496094 242.253906 16.066406 240.496094 17.148438 C 240.195312 17.320312 239.949219 17.519531 239.949219 17.566406 C 239.964844 17.621094 240.410156 17.941406 240.957031 18.285156 C 241.503906 18.632812 242.28125 19.210938 242.679688 19.570312 L 243.417969 20.234375 L 243.863281 19.816406 C 246.351562 17.464844 250.277344 12.535156 253.328125 7.929688 C 253.832031 7.183594 254.582031 6.128906 254.996094 5.609375 L 255.746094 4.660156 L 254.941406 4.328125 C 254.496094 4.15625 253.660156 3.75 253.085938 3.449219 L 252.050781 2.898438 Z M 251.027344 4.84375 "/>
<path style=" stroke:none;fill-rule:nonzero;fill:rgb(0%,0%,0%);fill-opacity:1;" d="M 124.5625 3.128906 C 124.5625 3.203125 124.5625 6.9375 124.578125 11.46875 C 124.59375 20.148438 124.476562 23.132812 123.988281 25.828125 C 123.472656 28.785156 122.320312 31.667969 120.894531 33.617188 L 120.277344 34.4375 L 121.457031 35.046875 C 122.101562 35.378906 122.808594 35.78125 123.027344 35.925781 C 123.226562 36.070312 123.457031 36.199219 123.527344 36.199219 C 123.773438 36.199219 125.699219 32.003906 126.304688 30.171875 C 126.878906 28.46875 127.46875 25.828125 127.671875 24.054688 L 127.773438 23.21875 L 135.84375 23.21875 L 135.769531 28.988281 L 135.699219 34.757812 L 139.179688 34.757812 L 139.136719 28.988281 L 139.082031 23.21875 L 147.738281 23.21875 L 147.738281 26.707031 C 147.738281 31.816406 147.753906 31.773438 145.378906 31.84375 C 144.460938 31.886719 143.714844 31.960938 143.714844 32.015625 C 143.714844 32.074219 143.871094 32.476562 144.070312 32.894531 C 144.257812 33.328125 144.53125 34.152344 144.671875 34.730469 L 144.917969 35.78125 L 145.496094 35.695312 C 146.503906 35.535156 148.773438 34.886719 149.351562 34.597656 C 149.941406 34.292969 150.472656 33.660156 150.773438 32.882812 C 150.933594 32.464844 150.992188 29.738281 151.050781 17.8125 C 151.089844 9.792969 151.101562 3.203125 151.078125 3.128906 C 151.050781 3.070312 145.074219 3.027344 137.796875 3.027344 C 130.535156 3.027344 124.578125 3.070312 124.5625 3.128906 Z M 135.800781 8.941406 L 135.800781 11.972656 L 127.742188 11.972656 L 127.742188 5.910156 L 135.800781 5.910156 Z M 147.738281 8.941406 L 147.738281 11.972656 L 139.105469 11.972656 L 139.105469 5.910156 L 147.738281 5.910156 Z M 135.800781 17.59375 L 135.800781 20.476562 L 127.742188 20.476562 L 127.742188 14.710938 L 135.800781 14.710938 Z M 147.738281 17.59375 L 147.738281 20.476562 L 139.105469 20.476562 L 139.105469 14.710938 L 147.738281 14.710938 Z M 147.738281 17.59375 "/>
<path style=" stroke:none;fill-rule:nonzero;fill:rgb(0%,0%,0%);fill-opacity:1;" d="M 205.222656 3.894531 C 204.433594 4.367188 203.769531 4.789062 203.753906 4.800781 C 203.730469 4.832031 204.507812 6.085938 205.464844 7.601562 C 206.433594 9.117188 207.308594 10.484375 207.410156 10.660156 C 207.582031 10.960938 207.582031 10.960938 208.347656 10.484375 C 208.75 10.210938 209.4375 9.820312 209.855469 9.589844 C 210.273438 9.359375 210.589844 9.117188 210.558594 9.027344 C 210.515625 8.941406 209.695312 7.65625 208.71875 6.1875 C 207.742188 4.714844 206.875 3.402344 206.792969 3.277344 C 206.664062 3.054688 206.476562 3.128906 205.222656 3.894531 Z M 205.222656 3.894531 "/>
<path style=" stroke:none;fill-rule:nonzero;fill:rgb(0%,0%,0%);fill-opacity:1;" d="M 52.9375 9.171875 C 52.9375 9.449219 51.5 14.03125 51.371094 14.175781 C 51.3125 14.234375 50.164062 14.261719 48.824219 14.25 L 46.394531 14.203125 L 47.402344 13.859375 C 47.964844 13.671875 48.464844 13.46875 48.535156 13.414062 C 48.636719 13.3125 46.96875 9.289062 46.765625 9.171875 C 46.726562 9.144531 46.121094 9.375 45.425781 9.691406 L 44.175781 10.269531 L 44.523438 10.945312 C 44.839844 11.582031 45.890625 14.117188 45.890625 14.25 C 45.890625 14.292969 44.824219 14.292969 43.515625 14.25 L 41.144531 14.164062 L 41.144531 17.351562 L 45.023438 17.234375 L 48.914062 17.132812 L 48.914062 20.523438 L 45.386719 20.449219 L 41.863281 20.363281 L 41.863281 23.535156 L 45.386719 23.4375 L 48.914062 23.320312 L 48.914062 27.503906 C 48.914062 31.367188 48.894531 31.699219 48.652344 31.914062 C 48.4375 32.117188 48.074219 32.160156 46.867188 32.160156 L 45.34375 32.160156 L 45.816406 33.070312 C 46.078125 33.558594 46.40625 34.339844 46.554688 34.816406 L 46.808594 35.652344 L 47.859375 35.5625 C 49.972656 35.363281 51.066406 34.828125 51.644531 33.675781 C 52.015625 32.910156 52.035156 32.679688 52.074219 24.316406 L 52.074219 23.320312 L 55.453125 23.4375 L 58.835938 23.535156 L 58.835938 20.363281 L 55.425781 20.449219 L 52.003906 20.523438 L 52.046875 18.832031 L 52.089844 17.132812 L 55.585938 17.234375 L 59.097656 17.351562 L 59.167969 16.210938 C 59.210938 15.574219 59.242188 14.867188 59.222656 14.636719 L 59.195312 14.203125 L 56.722656 14.261719 L 54.25 14.304688 L 54.734375 13.082031 C 55.34375 11.59375 55.730469 10.871094 56.207031 10.355469 L 56.5625 9.980469 L 55.714844 9.734375 C 53.570312 9.085938 52.9375 8.957031 52.9375 9.171875 Z M 52.9375 9.171875 "/>
<path style=" stroke:none;fill-rule:nonzero;fill:rgb(0%,0%,0%);fill-opacity:1;" d="M 89.089844 10.816406 L 87.910156 12.070312 L 88.28125 12.242188 C 88.859375 12.503906 91.695312 14.695312 92.972656 15.847656 C 93.589844 16.410156 94.136719 16.871094 94.199219 16.871094 C 94.253906 16.871094 94.429688 16.640625 94.585938 16.355469 C 94.742188 16.066406 95.246094 15.488281 95.707031 15.070312 L 96.542969 14.304688 L 95.277344 13.3125 C 94.007812 12.304688 90.6875 9.792969 90.410156 9.632812 C 90.339844 9.589844 89.738281 10.125 89.089844 10.816406 Z M 89.089844 10.816406 "/>
<path style=" stroke:none;fill-rule:nonzero;fill:rgb(0%,0%,0%);fill-opacity:1;" d="M 97.878906 12.605469 C 97.976562 15.1875 97.792969 20.765625 97.589844 21.574219 L 97.503906 21.9375 L 81.566406 21.847656 L 81.566406 24.964844 L 89.191406 24.863281 C 94.585938 24.792969 96.816406 24.804688 96.816406 24.90625 C 96.816406 25.441406 94.152344 28.210938 92.757812 29.132812 C 90.769531 30.429688 87.0625 31.828125 83.636719 32.539062 L 81.742188 32.925781 L 82.644531 33.761719 C 83.148438 34.238281 83.722656 34.960938 83.953125 35.402344 C 84.441406 36.359375 84.269531 36.359375 87.175781 35.332031 C 91.636719 33.75 93.835938 32.59375 96.3125 30.53125 C 98.039062 29.089844 98.972656 27.878906 100.539062 25.09375 C 100.640625 24.90625 101.515625 24.878906 107.300781 24.90625 L 113.933594 24.933594 L 113.933594 21.847656 L 107.457031 21.894531 C 102.46875 21.9375 100.988281 21.90625 100.988281 21.761719 C 100.988281 20.578125 101.476562 13.125 101.636719 12.042969 C 101.847656 10.441406 101.835938 10.398438 100.988281 10.382812 C 100.710938 10.382812 99.878906 10.257812 99.132812 10.109375 L 97.777344 9.851562 Z M 97.878906 12.605469 "/>
<path style=" stroke:none;fill-rule:nonzero;fill:rgb(0%,0%,0%);fill-opacity:1;" d="M 200.105469 15.648438 L 200.105469 17.351562 L 201.007812 17.265625 C 201.496094 17.203125 202.695312 17.117188 203.667969 17.078125 L 205.4375 16.972656 L 205.394531 23.664062 C 205.335938 30.996094 205.355469 30.847656 204.417969 32.449219 L 204.042969 33.097656 L 205.195312 33.90625 C 205.84375 34.351562 206.488281 34.859375 206.632812 35.03125 C 206.792969 35.191406 206.949219 35.332031 207.007812 35.332031 C 207.066406 35.332031 207.523438 34.785156 208.015625 34.109375 C 208.503906 33.429688 209.4375 32.304688 210.085938 31.613281 C 210.734375 30.921875 211.894531 29.652344 212.660156 28.785156 L 214.058594 27.214844 L 213.550781 26.535156 C 213.265625 26.144531 212.890625 25.511719 212.71875 25.09375 L 212.386719 24.34375 L 210.472656 26.535156 L 208.578125 28.742188 L 208.617188 21.445312 L 208.664062 14.132812 L 205.265625 14.132812 C 203.398438 14.132812 201.46875 14.09375 200.980469 14.046875 L 200.105469 13.945312 Z M 200.105469 15.648438 "/>
<path style=" stroke:none;fill-rule:nonzero;fill:rgb(0%,0%,0%);fill-opacity:1;" d="M 341.46875 16.757812 C 341.425781 18.445312 341.308594 20.074219 341.152344 20.910156 C 340.273438 25.757812 337.65625 30.070312 334.003906 32.667969 C 333.339844 33.125 332.753906 33.558594 332.691406 33.617188 C 332.621094 33.660156 332.878906 33.90625 333.269531 34.136719 C 333.945312 34.570312 335.328125 35.867188 335.328125 36.082031 C 335.328125 36.445312 335.890625 36.011719 337.28125 34.570312 C 340.160156 31.628906 341.394531 29.792969 342.660156 26.648438 C 343.035156 25.699219 343.382812 24.90625 343.410156 24.878906 C 343.4375 24.832031 343.609375 25.253906 343.785156 25.800781 C 344.433594 27.789062 345.796875 30.15625 347.324219 31.914062 C 348.03125 32.738281 351.324219 35.625 351.550781 35.625 C 351.609375 35.625 351.78125 35.402344 351.925781 35.132812 C 352.257812 34.523438 353.378906 33.359375 353.925781 33.085938 C 354.140625 32.96875 354.316406 32.851562 354.316406 32.808594 C 354.316406 32.78125 353.882812 32.507812 353.351562 32.21875 C 351.421875 31.152344 350.328125 30.34375 349.0625 29.058594 C 347.539062 27.515625 346.621094 26.046875 345.898438 24.023438 C 345.09375 21.792969 344.917969 20.4375 344.992188 17.148438 L 345.066406 14.324219 L 343.683594 14.21875 C 342.921875 14.175781 342.128906 14.09375 341.929688 14.046875 L 341.539062 13.960938 Z M 341.46875 16.757812 "/>
<path style=" stroke:none;fill-rule:nonzero;fill:rgb(0%,0%,0%);fill-opacity:1;" d="M 86.542969 15.503906 C 86.257812 15.949219 85.78125 16.570312 85.492188 16.886719 C 85.203125 17.203125 85.003906 17.480469 85.035156 17.507812 C 85.058594 17.519531 85.609375 17.78125 86.226562 18.074219 C 87.476562 18.660156 89.230469 19.84375 90.511719 20.9375 L 91.332031 21.648438 L 92.640625 20.320312 C 93.347656 19.597656 93.9375 18.992188 93.9375 18.964844 C 93.9375 18.820312 87.363281 14.710938 87.132812 14.710938 C 87.101562 14.710938 86.832031 15.070312 86.542969 15.503906 Z M 86.542969 15.503906 "/>
<path style=" stroke:none;fill-rule:nonzero;fill:rgb(0%,0%,0%);fill-opacity:1;" d="M 490.660156 15.636719 C 490.144531 16.066406 489.671875 16.5 489.609375 16.585938 C 489.550781 16.671875 489.796875 17.117188 490.15625 17.566406 C 490.851562 18.460938 492.128906 20.394531 492.128906 20.566406 C 492.128906 20.667969 489.265625 20.535156 488.359375 20.394531 L 487.8125 20.292969 L 487.8125 23.363281 L 491.410156 23.277344 L 495.003906 23.175781 L 495.003906 25.859375 L 491.453125 25.757812 C 489.480469 25.699219 487.609375 25.628906 487.28125 25.585938 L 486.660156 25.496094 L 486.660156 28.484375 L 490.863281 28.441406 L 495.046875 28.382812 L 494.875 34.757812 L 498.113281 34.757812 L 498.054688 31.570312 L 497.996094 28.398438 L 506.226562 28.484375 L 506.226562 25.699219 L 502.125 25.789062 L 498.023438 25.859375 L 498.023438 23.175781 L 501.621094 23.261719 L 505.21875 23.335938 L 505.21875 20.523438 L 502.917969 20.59375 C 501.652344 20.636719 500.613281 20.625 500.613281 20.566406 C 500.613281 20.523438 500.890625 19.972656 501.234375 19.367188 C 501.910156 18.144531 502.53125 17.4375 503.191406 17.148438 C 503.433594 17.03125 503.636719 16.917969 503.636719 16.871094 C 503.636719 16.816406 500.457031 15.328125 500.152344 15.242188 C 500.101562 15.230469 499.648438 16.023438 499.175781 17.019531 C 498.703125 18.011719 498.054688 19.222656 497.738281 19.714844 L 497.179688 20.625 L 492.488281 20.625 L 493.207031 20.117188 C 494.761719 19.023438 494.675781 19.125 494.398438 18.660156 C 494.011719 17.984375 491.769531 14.855469 491.683594 14.855469 C 491.640625 14.855469 491.179688 15.214844 490.660156 15.636719 Z M 490.660156 15.636719 "/>
<path style=" stroke:none;fill-rule:nonzero;fill:rgb(0%,0%,0%);fill-opacity:1;" d="M 1.148438 16.410156 L 1.148438 17.765625 L 3.167969 17.667969 L 5.179688 17.550781 L 5.148438 23.738281 L 5.109375 29.925781 L 4.460938 30.027344 C 4.101562 30.070312 3.277344 30.125 2.632812 30.140625 C 1.757812 30.171875 1.441406 30.226562 1.441406 30.371094 C 1.441406 30.472656 1.671875 31.195312 1.941406 31.972656 C 2.230469 32.75 2.472656 33.457031 2.519531 33.558594 C 2.558594 33.6875 2.703125 33.6875 3.050781 33.589844 C 5.25 32.941406 11.566406 31.484375 13.421875 31.226562 L 14.097656 31.125 L 14.097656 35.332031 L 17.191406 35.332031 L 17.191406 30.644531 L 18.097656 30.515625 L 18.988281 30.371094 L 18.988281 28.960938 C 18.988281 28.179688 18.945312 27.546875 18.886719 27.546875 C 18.816406 27.546875 18.457031 27.648438 18.066406 27.761719 C 17.679688 27.878906 17.304688 27.980469 17.234375 27.980469 C 17.175781 27.980469 17.117188 25.628906 17.117188 22.773438 L 17.117188 17.566406 L 25.390625 17.621094 L 33.660156 17.667969 L 33.660156 15.070312 L 1.148438 15.070312 Z M 14.097656 18.75 L 14.097656 19.902344 L 8.199219 19.902344 L 8.199219 17.59375 L 14.097656 17.59375 Z M 14.097656 23.4375 L 14.097656 24.515625 L 8.199219 24.515625 L 8.199219 22.351562 L 14.097656 22.351562 Z M 14.027344 27.761719 L 14.027344 28.628906 L 11.367188 29.019531 C 9.898438 29.21875 8.585938 29.40625 8.457031 29.40625 C 8.230469 29.421875 8.199219 29.261719 8.199219 28.121094 L 8.199219 26.824219 L 11.121094 26.855469 L 14.027344 26.898438 Z M 14.027344 27.761719 "/>
<path style=" stroke:none;fill-rule:nonzero;fill:rgb(0%,0%,0%);fill-opacity:1;" d="M 247.140625 18.273438 L 247.140625 19.757812 L 252.03125 19.757812 L 251.960938 20.148438 C 251.929688 20.375 251.820312 21.039062 251.730469 21.632812 C 251.214844 24.992188 250.019531 27.285156 247.859375 29.058594 C 246.570312 30.125 244.941406 31.078125 243.070312 31.875 C 242.222656 32.234375 241.53125 32.566406 241.53125 32.609375 C 241.53125 32.667969 241.792969 32.882812 242.109375 33.097656 C 242.710938 33.519531 243.75 34.582031 244.136719 35.191406 L 244.367188 35.550781 L 245.289062 34.988281 C 250.582031 31.742188 252.695312 29.582031 253.988281 26.105469 C 254.421875 24.953125 255.054688 22.210938 255.273438 20.4375 L 255.359375 19.757812 L 258.910156 19.742188 C 260.867188 19.742188 262.5625 19.714844 262.691406 19.6875 C 263.328125 19.570312 263.328125 19.65625 262.78125 24.792969 C 262.234375 29.855469 262.046875 30.703125 261.484375 30.976562 C 261.3125 31.066406 260.261719 31.167969 259.15625 31.207031 C 258.046875 31.25 257.128906 31.28125 257.109375 31.28125 C 257.097656 31.296875 257.339844 31.800781 257.644531 32.417969 C 257.945312 33.039062 258.320312 33.949219 258.449219 34.4375 C 258.589844 34.929688 258.738281 35.332031 258.796875 35.332031 C 259.039062 35.332031 263.027344 34.292969 263.429688 34.136719 C 264.117188 33.835938 264.792969 33.070312 265.125 32.21875 C 265.3125 31.683594 265.601562 29.722656 266.058594 25.640625 C 266.417969 22.441406 266.808594 19.183594 266.921875 18.390625 C 267.039062 17.609375 267.109375 16.945312 267.097656 16.933594 C 267.082031 16.917969 262.578125 16.871094 257.109375 16.84375 L 247.140625 16.785156 Z M 247.140625 18.273438 "/>
<path style=" stroke:none;fill-rule:nonzero;fill:rgb(0%,0%,0%);fill-opacity:1;" d="M 291.089844 17.378906 C 290.457031 17.742188 289.882812 18.042969 289.796875 18.074219 C 289.726562 18.097656 289.796875 18.390625 289.984375 18.691406 C 290.167969 18.992188 290.816406 20.265625 291.421875 21.488281 L 292.527344 23.738281 L 293.394531 23.132812 C 293.867188 22.789062 294.5 22.394531 294.800781 22.269531 C 295.089844 22.140625 295.332031 21.96875 295.332031 21.90625 C 295.332031 21.792969 294.574219 20.363281 293.132812 17.765625 C 292.816406 17.203125 292.488281 16.730469 292.398438 16.742188 C 292.316406 16.742188 291.722656 17.03125 291.089844 17.378906 Z M 291.089844 17.378906 "/>
<path style=" stroke:none;fill-rule:nonzero;fill:rgb(0%,0%,0%);fill-opacity:1;" d="M 453.761719 21.445312 C 453.832031 22.789062 453.847656 26.578125 453.804688 29.882812 L 453.734375 35.910156 L 457.027344 35.910156 L 457.027344 33.171875 L 466.953125 33.171875 L 466.953125 35.476562 L 470.191406 35.476562 L 470.191406 19.035156 L 453.648438 19.035156 Z M 466.953125 23.21875 L 466.953125 24.664062 L 457.027344 24.664062 L 457.027344 21.777344 L 466.953125 21.777344 Z M 466.953125 28.914062 L 466.953125 30.429688 L 457.027344 30.429688 L 457.027344 27.402344 L 466.953125 27.402344 Z M 466.953125 28.914062 "/>
<path style=" stroke:none;fill-rule:nonzero;fill:rgb(0%,0%,0%);fill-opacity:1;" d="M 18.128906 21.113281 L 18.128906 22.5 L 19.363281 22.5 L 19.636719 23.535156 C 20.242188 25.929688 21.117188 27.75 22.414062 29.261719 L 23.074219 30.039062 L 22.078125 30.964844 C 21.128906 31.859375 19.132812 32.996094 18.082031 33.257812 C 17.867188 33.300781 17.695312 33.402344 17.726562 33.457031 C 17.75 33.519531 18.269531 34.09375 18.886719 34.757812 L 19.996094 35.941406 L 20.398438 35.679688 C 21.359375 35.0625 23.464844 33.417969 24.339844 32.609375 L 25.289062 31.730469 L 26.84375 32.578125 C 28.285156 33.386719 30.007812 34.152344 31.75 34.757812 L 32.496094 35.03125 L 32.667969 34.496094 C 32.757812 34.210938 33.085938 33.488281 33.386719 32.925781 C 33.949219 31.886719 33.949219 31.875 33.636719 31.816406 C 33.445312 31.773438 32.757812 31.628906 32.09375 31.496094 C 30.484375 31.195312 28.886719 30.664062 27.910156 30.113281 C 27.476562 29.867188 27.101562 29.664062 27.074219 29.636719 C 27.058594 29.621094 27.332031 29.089844 27.691406 28.453125 C 28.742188 26.609375 30.222656 22.601562 30.714844 20.363281 L 30.816406 19.902344 L 25.347656 19.902344 C 22.355469 19.902344 19.488281 19.859375 19.003906 19.816406 L 18.128906 19.714844 Z M 27.1875 22.46875 C 27.1875 22.8125 26.238281 25.3125 25.734375 26.320312 C 24.886719 27.992188 24.828125 28.039062 24.242188 27.332031 C 23.230469 26.132812 22.367188 24.332031 22.097656 22.8125 L 22.027344 22.351562 L 24.597656 22.351562 C 26.023438 22.351562 27.1875 22.410156 27.1875 22.46875 Z M 27.1875 22.46875 "/>
<path style=" stroke:none;fill-rule:nonzero;fill:rgb(0%,0%,0%);fill-opacity:1;" d="M 44.523438 25.398438 C 43.472656 27.171875 42.824219 28.089844 41.457031 29.765625 L 40.507812 30.921875 L 40.867188 31.136719 C 41.054688 31.265625 41.617188 31.714844 42.121094 32.132812 C 42.625 32.566406 43.054688 32.882812 43.070312 32.851562 C 43.675781 32.105469 48.335938 25.773438 48.304688 25.757812 C 48.277344 25.726562 47.90625 25.511719 47.472656 25.253906 C 47.042969 24.980469 46.40625 24.546875 46.078125 24.285156 L 45.472656 23.792969 Z M 44.523438 25.398438 "/>
<path style=" stroke:none;fill-rule:nonzero;fill:rgb(0%,0%,0%);fill-opacity:1;" d="M 53.871094 24.964844 C 53.324219 25.355469 52.8125 25.742188 52.738281 25.8125 C 52.664062 25.886719 52.925781 26.421875 53.371094 27.140625 C 53.785156 27.808594 54.492188 29 54.925781 29.824219 L 55.703125 31.308594 L 56.449219 30.601562 C 56.851562 30.226562 57.394531 29.78125 57.65625 29.636719 C 57.902344 29.480469 58.117188 29.292969 58.117188 29.203125 C 58.117188 29 55.027344 24.214844 54.910156 24.230469 C 54.894531 24.246094 54.433594 24.5625 53.871094 24.964844 Z M 53.871094 24.964844 "/>
<path style=" stroke:none;fill-rule:nonzero;fill:rgb(0%,0%,0%);fill-opacity:1;" d="M 100.914062 27.933594 C 100.398438 28.644531 99.980469 29.230469 99.980469 29.277344 C 99.980469 29.320312 101.390625 30.1875 103.117188 31.226562 C 104.828125 32.261719 107.199219 33.730469 108.382812 34.511719 C 110.121094 35.664062 110.554688 35.894531 110.695312 35.734375 C 111.601562 34.742188 113.085938 32.996094 113.054688 32.96875 C 112.953125 32.894531 105.878906 28.828125 103.933594 27.734375 C 102.914062 27.15625 102.023438 26.679688 101.949219 26.679688 C 101.890625 26.679688 101.429688 27.242188 100.914062 27.933594 Z M 100.914062 27.933594 "/>
<path style=" stroke:none;fill-rule:nonzero;fill:rgb(0%,0%,0%);fill-opacity:1;" d="M 170.78125 28.066406 C 167.839844 29.046875 165.707031 29.582031 162.769531 30.070312 C 161.507812 30.285156 160.328125 30.488281 160.152344 30.515625 C 159.839844 30.574219 159.839844 30.589844 160.328125 31.425781 C 160.601562 31.886719 161.003906 32.679688 161.21875 33.1875 C 161.421875 33.6875 161.605469 34.121094 161.621094 34.152344 C 161.632812 34.164062 162.09375 33.980469 162.640625 33.730469 C 164.09375 33.070312 164.800781 32.839844 169.101562 31.644531 C 171.246094 31.050781 173.101562 30.53125 173.246094 30.488281 C 173.460938 30.417969 173.488281 30.214844 173.488281 28.828125 C 173.488281 27.660156 173.445312 27.257812 173.320312 27.269531 C 173.214844 27.285156 172.078125 27.632812 170.78125 28.066406 Z M 170.78125 28.066406 "/>
</g>
</svg>
